<svg width="1080" height="1080" viewBox="0 0 1080 1080" fill="none" xmlns="http://www.w3.org/2000/svg">
<g clip-path="url(#clip0_1529_6)">
<circle cx="540" cy="540" r="540" fill="white"/>
<path fill-rule="evenodd" clip-rule="evenodd" d="M896.9 637.36C906.076 608.418 911.023 577.923 911.023 546.428C911.023 542.236 910.935 538.063 910.759 533.911C892.97 533.405 875.357 530.735 861.403 527.511C861.792 533.765 861.991 540.073 861.991 546.428C861.991 551.592 861.881 556.738 861.663 561.862C862.578 562.117 863.493 562.387 864.399 562.67C874.726 558.417 899.147 563.642 894.773 589.4L883.231 612.484C888.878 616.904 894.624 626.185 896.9 637.36ZM876.095 687.422C875.074 688.172 874.01 688.91 872.904 689.636C860.382 697.854 843.679 701.077 827.283 701.602C799.86 759.547 757.766 807.663 706.745 837.704L711.839 844.785C782.79 809.805 841.258 754.478 876.095 687.422ZM794.925 699.534C797.317 699.903 799.812 700.239 802.388 700.53C788.476 806.507 627.366 865.582 566.848 874.788C566.848 874.788 405.989 905.672 265.985 755.667C245.107 733.33 226.567 708.449 211.573 681.599C226.136 694.281 245.331 702.385 265.822 702.139C294.385 750.728 334.484 790.076 380.119 816.568C474.57 871.481 552.153 859.387 552.153 859.387C668.505 853.127 752.506 785.263 794.925 699.534ZM185.11 620.633C176.507 593.305 171.721 564.633 171.721 535.08C171.721 534.783 171.721 534.485 171.722 534.188C186.503 534.783 202.891 533.204 220.786 528.975C220.755 531.002 220.74 533.033 220.74 535.067C220.74 546.561 221.315 557.867 222.431 568.965C198.415 583.389 187.169 601.962 185.11 620.633ZM303.043 363.929C295.154 363.831 288.191 363.753 282.63 364.274C329.415 229.377 576.441 212.907 579.73 212.841C587.571 213.001 689.156 217.041 780.741 291.17C810.209 315.01 835.981 342.72 856.654 373.442C846.021 379.574 838.554 387.319 834.024 395.001C830.371 369.065 813.676 360.038 799.933 358.014C791.868 346.745 783.245 336.145 774.207 326.294C774.207 326.294 691.343 223.282 548.953 227.349C548.953 227.349 503.547 226.362 454.728 243.898C345.333 283.243 312.74 335.797 303.043 363.929ZM254.263 377.614C247.865 372.067 239.161 371.409 234.425 373.131C230.335 371.406 225.91 369.82 221.228 368.414C252.983 318.541 298.256 276.527 351.836 246.471L356.263 251.952C312.121 283.582 277.473 327.046 254.263 377.614ZM179.181 361.771C218.843 274.374 315.581 225.964 331.526 219.228C335.74 216.881 339.127 212.147 318.898 216.081C301.47 219.521 252.264 229.496 210.058 278.449C183.065 309.792 172.424 342.754 168.433 361.898C172.02 361.725 175.61 361.686 179.181 361.771ZM779.394 229.456C829.147 249.165 877.246 296.544 900.849 352.551C902.516 329.682 899.168 286.276 884.833 268.941C870.498 251.579 853.63 237.337 815.665 230.269C804.69 229.456 790.355 228.682 779.394 229.456ZM625.029 942.463C635.563 943.25 702.198 936.129 746.07 912.847C803.384 882.43 822.693 859.547 853.616 795.245C877.048 746.573 898.863 727.029 916.339 711.373C923.09 705.324 929.194 699.856 934.493 693.513C943.481 682.685 948.574 675.257 953.255 667.256C955.989 662.576 958.376 657.762 960.643 652.161C960.643 652.161 962.269 647.814 965.63 648.867C969.004 649.921 966.643 655.588 966.643 655.588C960.243 672.177 948.828 692.553 930.799 712.795C926.172 717.977 921.646 722.933 917.262 727.734C895.097 752.003 876.535 772.329 866.671 798.046C865.796 800.322 864.849 802.856 863.82 805.61L863.818 805.614C850.949 840.043 825.269 908.744 767.979 936.129C730.055 954.292 676.035 959.025 623.749 949.544C611.107 947.971 617.854 942.463 625.029 942.463ZM344.128 940.503C317.952 933.542 282.907 913.406 263.278 888.937C255.811 877.989 247.836 869.681 254.864 889.817C257.918 898.591 277.293 920.421 287.561 927.368C297.842 934.396 330.633 946.571 338.047 947.517C369.371 951.438 350.622 942.25 344.128 940.503Z" fill="black"/>
<path d="M896.9 637.36L888.567 639.058C889.34 642.854 892.581 645.648 896.449 645.853C900.318 646.059 903.837 643.624 905.008 639.931L896.9 637.36ZM910.759 533.911L919.256 533.551C919.068 529.091 915.463 525.536 911.001 525.409L910.759 533.911ZM861.403 527.511L863.317 519.224C860.701 518.62 857.953 519.287 855.905 521.022C853.856 522.758 852.748 525.359 852.914 528.039L861.403 527.511ZM861.663 561.862L853.166 561.501C852.999 565.447 855.57 568.989 859.373 570.052L861.663 561.862ZM864.399 562.67L861.862 570.787C863.757 571.38 865.801 571.29 867.637 570.534L864.399 562.67ZM894.773 589.4L902.381 593.203C902.756 592.453 903.018 591.651 903.158 590.823L894.773 589.4ZM883.231 612.484L875.624 608.681C873.815 612.298 874.804 616.689 877.989 619.182L883.231 612.484ZM872.904 689.636L868.237 682.526L868.237 682.526L872.904 689.636ZM876.095 687.422L883.642 691.343C885.465 687.835 884.63 683.534 881.628 680.963C878.626 678.391 874.248 678.227 871.062 680.566L876.095 687.422ZM827.283 701.602L827.011 693.101C823.823 693.203 820.96 695.08 819.595 697.963L827.283 701.602ZM706.745 837.704L702.43 830.375C700.37 831.588 698.915 833.612 698.423 835.952C697.93 838.291 698.445 840.73 699.841 842.671L706.745 837.704ZM711.839 844.785L704.935 849.752C707.362 853.125 711.872 854.251 715.6 852.413L711.839 844.785ZM794.925 699.534L796.221 691.129C792.556 690.563 788.947 692.438 787.302 695.762L794.925 699.534ZM802.388 700.53L810.82 701.637C811.117 699.374 810.493 697.087 809.086 695.289C807.68 693.492 805.61 692.335 803.342 692.079L802.388 700.53ZM566.848 874.788L565.569 866.38C565.461 866.397 565.352 866.415 565.245 866.436L566.848 874.788ZM265.985 755.667L272.203 749.864L272.199 749.86L265.985 755.667ZM211.573 681.599L217.158 675.185C214.041 672.47 209.423 672.39 206.213 674.995C203.004 677.6 202.132 682.136 204.148 685.746L211.573 681.599ZM265.822 702.139L273.154 697.829C271.608 695.198 268.771 693.598 265.72 693.634L265.822 702.139ZM380.119 816.568L384.394 809.215L384.389 809.213L380.119 816.568ZM552.153 859.387L551.696 850.894C551.411 850.909 551.126 850.939 550.843 850.983L552.153 859.387ZM185.11 620.633L176.997 623.187C178.205 627.023 181.935 629.489 185.938 629.098C189.941 628.706 193.122 625.563 193.563 621.565L185.11 620.633ZM171.722 534.188L172.064 525.69C169.755 525.597 167.508 526.447 165.839 528.045C164.17 529.644 163.224 531.852 163.217 534.163L171.722 534.188ZM220.786 528.975L229.29 529.104C229.329 526.482 228.157 523.988 226.113 522.345C224.069 520.703 221.382 520.095 218.83 520.698L220.786 528.975ZM222.431 568.965L226.81 576.256C229.632 574.561 231.222 571.39 230.893 568.115L222.431 568.965ZM282.63 364.274L274.595 361.487C273.647 364.22 274.153 367.247 275.938 369.523C277.724 371.799 280.544 373.012 283.424 372.742L282.63 364.274ZM303.043 363.929L302.938 372.433C306.606 372.478 309.889 370.168 311.084 366.7L303.043 363.929ZM579.73 212.841L579.903 204.337C579.789 204.335 579.674 204.335 579.559 204.337L579.73 212.841ZM780.741 291.17L775.39 297.781L775.392 297.782L780.741 291.17ZM856.654 373.442L860.903 380.809C862.945 379.631 864.407 377.659 864.939 375.362C865.472 373.065 865.026 370.65 863.71 368.694L856.654 373.442ZM834.024 395.001L825.602 396.187C826.106 399.767 828.818 402.636 832.364 403.342C835.909 404.048 839.513 402.435 841.35 399.321L834.024 395.001ZM799.933 358.014L793.017 362.964C794.361 364.841 796.41 366.091 798.694 366.428L799.933 358.014ZM774.207 326.294L767.58 331.625C767.695 331.769 767.816 331.909 767.94 332.045L774.207 326.294ZM548.953 227.349L548.768 235.852C548.911 235.855 549.053 235.855 549.196 235.85L548.953 227.349ZM454.728 243.898L451.853 235.893L451.85 235.895L454.728 243.898ZM234.425 373.131L231.12 380.968C233.097 381.801 235.316 381.857 237.332 381.124L234.425 373.131ZM254.263 377.614L248.691 384.04C250.714 385.794 253.445 386.493 256.062 385.927C258.678 385.36 260.876 383.595 261.993 381.162L254.263 377.614ZM221.228 368.414L214.054 363.846C212.623 366.093 212.328 368.881 213.256 371.378C214.185 373.875 216.23 375.793 218.781 376.559L221.228 368.414ZM351.836 246.471L358.452 241.127C355.845 237.901 351.292 237.025 347.675 239.054L351.836 246.471ZM356.263 251.952L361.217 258.865C363.119 257.502 364.376 255.415 364.691 253.095C365.005 250.775 364.35 248.429 362.879 246.608L356.263 251.952ZM331.526 219.228L334.836 227.062C335.12 226.943 335.396 226.808 335.665 226.658L331.526 219.228ZM179.181 361.771L178.979 370.274C182.388 370.355 185.516 368.391 186.926 365.286L179.181 361.771ZM318.898 216.081L317.275 207.732C317.267 207.734 317.259 207.735 317.251 207.737L318.898 216.081ZM210.058 278.449L203.617 272.895L203.614 272.898L210.058 278.449ZM168.433 361.898L160.107 360.162C159.57 362.739 160.256 365.419 161.965 367.421C163.675 369.423 166.214 370.52 168.844 370.393L168.433 361.898ZM900.849 352.551L893.011 355.854C894.538 359.477 898.35 361.581 902.229 360.943C906.109 360.305 909.045 357.091 909.331 353.169L900.849 352.551ZM779.394 229.456L778.795 220.972C774.835 221.251 771.595 224.233 770.989 228.157C770.382 232.08 772.571 235.901 776.262 237.363L779.394 229.456ZM884.833 268.941L878.275 274.356L878.279 274.361L884.833 268.941ZM815.665 230.269L817.222 221.908C816.915 221.851 816.605 221.811 816.294 221.788L815.665 230.269ZM746.07 912.847L750.057 920.359L750.057 920.359L746.07 912.847ZM625.029 942.463L625.662 933.982C625.451 933.966 625.24 933.958 625.029 933.958V942.463ZM853.616 795.245L845.953 791.556L845.952 791.559L853.616 795.245ZM916.339 711.373L910.664 705.038L910.664 705.038L916.339 711.373ZM934.493 693.513L941.02 698.966C941.026 698.959 941.031 698.952 941.037 698.945L934.493 693.513ZM953.255 667.256L960.596 671.551L960.599 671.546L953.255 667.256ZM960.643 652.161L968.526 655.352C968.554 655.282 968.582 655.212 968.608 655.142L960.643 652.161ZM965.63 648.867L963.086 656.983L963.095 656.986L965.63 648.867ZM966.643 655.588L958.792 652.319C958.763 652.387 958.736 652.457 958.709 652.527L966.643 655.588ZM930.799 712.795L937.143 718.46L937.15 718.452L930.799 712.795ZM917.262 727.734L910.982 721.999L910.982 721.999L917.262 727.734ZM866.671 798.046L874.61 801.097L874.612 801.091L866.671 798.046ZM863.82 805.61L871.767 808.638C871.774 808.621 871.78 808.604 871.786 808.588L863.82 805.61ZM863.818 805.614L855.87 802.586C855.864 802.603 855.858 802.619 855.852 802.636L863.818 805.614ZM767.979 936.129L764.311 928.456L764.306 928.459L767.979 936.129ZM623.749 949.544L625.266 941.176C625.111 941.148 624.955 941.124 624.799 941.104L623.749 949.544ZM263.278 888.937L256.252 893.729C256.376 893.911 256.507 894.087 256.644 894.259L263.278 888.937ZM344.128 940.503L346.337 932.29C346.329 932.288 346.322 932.286 346.314 932.284L344.128 940.503ZM254.864 889.817L262.896 887.021L262.894 887.014L254.864 889.817ZM287.561 927.368L292.361 920.347C292.349 920.339 292.338 920.332 292.327 920.324L287.561 927.368ZM338.047 947.517L336.97 955.954C336.977 955.955 336.984 955.956 336.991 955.957L338.047 947.517ZM93.5644 692.193L87.1582 697.787L87.1583 697.787L93.5644 692.193ZM108.509 709.112L102.151 714.761L102.151 714.761L108.509 709.112ZM178.441 803.486L186.077 799.741C186.075 799.737 186.073 799.732 186.071 799.728L178.441 803.486ZM200.327 856.257L208.282 853.247L208.282 853.247L200.327 856.257ZM224.327 913.286L216.749 917.148L216.752 917.153L224.327 913.286ZM364.277 993.59L364.427 985.086L364.418 985.086L364.277 993.59ZM453.885 984.838L452.945 976.385C452.82 976.399 452.696 976.415 452.571 976.435L453.885 984.838ZM453.886 984.837L454.826 993.29C454.951 993.276 455.075 993.26 455.2 993.24L453.886 984.837ZM499 978.441L499.956 986.892L499.958 986.892L499 978.441ZM618.232 985.274L617.009 993.691L617.009 993.691L618.232 985.274ZM726.708 992.99L727.338 1001.47L727.343 1001.47L726.708 992.99ZM865.218 889.817L873.37 892.239L873.371 892.237L865.218 889.817ZM986.045 700.704L979.948 694.774L979.948 694.774L986.045 700.704ZM987.112 699.607L981.019 693.674L981.016 693.677L987.112 699.607ZM1025.98 595.981L1034.49 596.055L1034.49 596.049L1025.98 595.981ZM865.004 208.187L867.966 200.214L867.962 200.213L865.004 208.187ZM797.406 190.785L795.734 199.124L795.734 199.124L797.406 190.785ZM735.309 175.343L738.082 167.303L738.072 167.299L735.309 175.343ZM676.448 138.268L681.741 131.611L681.741 131.611L676.448 138.268ZM643.057 113.922L647.427 106.625L647.427 106.625L643.057 113.922ZM594.998 92.2657L597.192 84.0485C597.185 84.0467 597.178 84.0449 597.171 84.043L594.998 92.2657ZM533.082 87.0263L533.123 95.5311L533.123 95.5311L533.082 87.0263ZM524.096 87.0517L524.106 78.5468C523.991 78.5467 523.876 78.5489 523.761 78.5534L524.096 87.0517ZM392.641 150.686L386.796 144.508C386.765 144.537 386.734 144.567 386.704 144.596L392.641 150.686ZM326.873 182.33L327.871 190.776C327.957 190.766 328.043 190.755 328.129 190.742L326.873 182.33ZM316.22 183.398L317.013 191.866L317.013 191.866L316.22 183.398ZM190.003 219.588L184.911 212.776C184.704 212.93 184.505 213.094 184.313 213.266L190.003 219.588ZM184.96 224.09L179.309 217.734L179.303 217.739L184.96 224.09ZM184.954 224.095L190.605 230.451L190.611 230.445L184.954 224.095ZM147.118 270.581L139.182 267.521L139.181 267.525L147.118 270.581ZM134.81 344.339L126.32 343.836L126.32 343.836L134.81 344.339ZM902.518 546.428C902.518 577.025 897.713 606.654 888.793 634.79L905.008 639.931C914.439 610.182 919.528 578.82 919.528 546.428H902.518ZM902.262 534.27C902.432 538.303 902.518 542.356 902.518 546.428H919.528C919.528 542.116 919.437 537.824 919.256 533.551L902.262 534.27ZM911.001 525.409C893.851 524.921 876.801 522.339 863.317 519.224L859.489 535.798C873.913 539.13 892.089 541.888 910.517 542.412L911.001 525.409ZM870.496 546.428C870.496 539.895 870.291 533.412 869.891 526.984L852.914 528.039C853.292 534.119 853.486 540.25 853.486 546.428H870.496ZM870.161 562.222C870.383 556.978 870.496 551.713 870.496 546.428H853.486C853.486 551.471 853.378 556.497 853.166 561.501L870.161 562.222ZM866.936 554.552C865.94 554.241 864.942 553.947 863.954 553.671L859.373 570.052C860.213 570.287 861.045 570.532 861.862 570.787L866.936 554.552ZM903.158 590.823C904.483 583.023 903.727 576.1 901.07 570.244C898.411 564.386 894.122 560.197 889.383 557.434C880.369 552.177 868.906 551.616 861.16 554.805L867.637 570.534C870.219 569.471 876.131 569.396 880.815 572.128C882.926 573.359 884.567 575.04 885.58 577.273C886.594 579.508 887.251 582.897 886.389 587.976L903.158 590.823ZM890.838 616.288L902.381 593.203L887.166 585.596L875.624 608.681L890.838 616.288ZM905.234 635.663C902.648 622.966 896.046 611.714 888.473 605.787L877.989 619.182C881.71 622.094 886.6 629.404 888.567 639.058L905.234 635.663ZM877.57 696.747C878.798 695.941 879.984 695.117 881.129 694.277L871.062 680.566C870.163 681.226 869.222 681.88 868.237 682.526L877.57 696.747ZM827.555 710.102C844.628 709.556 863.156 706.206 877.57 696.747L868.237 682.526C857.608 689.502 842.729 692.598 827.011 693.101L827.555 710.102ZM711.061 845.033C763.72 814.027 806.908 764.537 834.97 705.24L819.595 697.963C792.812 754.557 751.812 801.298 702.43 830.375L711.061 845.033ZM718.743 839.818L713.649 832.737L699.841 842.671L704.935 849.752L718.743 839.818ZM868.548 683.501C834.613 748.82 777.541 802.911 708.078 837.157L715.6 852.413C788.039 816.7 847.903 760.136 883.642 691.343L868.548 683.501ZM793.628 707.94C796.132 708.326 798.741 708.677 801.433 708.981L803.342 692.079C800.883 691.801 798.502 691.481 796.221 691.129L793.628 707.94ZM568.127 883.197C599.466 878.429 655.901 860.99 706.407 831.279C756.596 801.755 803.334 758.665 810.82 701.637L793.955 699.423C787.529 748.372 746.756 787.809 697.783 816.618C649.126 845.24 594.748 861.941 565.569 866.38L568.127 883.197ZM259.768 761.47C331.174 837.978 408.103 868.516 467.322 879.833C496.891 885.484 522.01 886.339 539.798 885.771C548.695 885.487 555.768 884.846 560.66 884.269C563.106 883.98 565.008 883.707 566.322 883.502C566.978 883.399 567.488 883.313 567.845 883.251C568.023 883.22 568.163 883.194 568.265 883.176C568.315 883.167 568.356 883.159 568.388 883.153C568.403 883.15 568.416 883.148 568.427 883.146C568.433 883.145 568.439 883.143 568.441 883.143C568.447 883.142 568.452 883.141 566.848 874.788C565.245 866.436 565.248 866.435 565.251 866.435C565.252 866.435 565.254 866.434 565.255 866.434C565.256 866.434 565.254 866.434 565.25 866.435C565.242 866.436 565.225 866.44 565.198 866.445C565.143 866.455 565.051 866.471 564.921 866.494C564.66 866.54 564.249 866.609 563.694 866.696C562.582 866.87 560.891 867.113 558.666 867.376C554.214 867.902 547.626 868.502 539.255 868.77C522.507 869.305 498.66 868.505 470.515 863.126C414.303 852.384 340.8 823.361 272.203 749.864L259.768 761.47ZM204.148 685.746C219.504 713.243 238.462 738.676 259.772 761.475L272.199 749.86C251.752 727.984 233.631 703.654 218.999 677.452L204.148 685.746ZM205.988 688.013C221.941 701.905 243.113 710.918 265.925 710.643L265.72 693.634C247.549 693.853 230.331 686.656 217.158 675.185L205.988 688.013ZM384.389 809.213C340.027 783.46 300.979 745.163 273.154 697.829L258.49 706.449C287.79 756.292 328.941 796.693 375.849 823.923L384.389 809.213ZM552.153 859.387C550.843 850.983 550.846 850.983 550.849 850.982C550.85 850.982 550.853 850.982 550.854 850.981C550.856 850.981 550.858 850.981 550.858 850.981C550.858 850.981 550.854 850.981 550.845 850.983C550.826 850.986 550.79 850.991 550.735 850.999C550.624 851.014 550.441 851.04 550.186 851.072C549.676 851.137 548.881 851.23 547.815 851.334C545.682 851.54 542.467 851.786 538.287 851.918C529.926 852.181 517.716 851.99 502.594 850.129C472.362 846.407 430.487 836.014 384.394 809.215L375.844 823.921C424.203 852.036 468.344 863.051 500.516 867.011C516.597 868.99 529.686 869.207 538.823 868.919C543.393 868.775 546.977 868.505 549.455 868.264C550.695 868.144 551.659 868.032 552.332 867.946C552.668 867.903 552.932 867.867 553.121 867.84C553.216 867.827 553.292 867.816 553.349 867.807C553.377 867.803 553.401 867.8 553.42 867.797C553.43 867.795 553.438 867.794 553.445 867.793C553.449 867.792 553.453 867.792 553.455 867.791C553.459 867.791 553.463 867.79 552.153 859.387ZM787.302 695.762C746.089 779.053 664.649 844.817 551.696 850.894L552.61 867.879C672.362 861.436 758.923 791.472 802.548 703.306L787.302 695.762ZM163.216 535.08C163.216 565.559 168.153 595.091 176.997 623.187L193.222 618.079C184.861 591.518 180.225 563.707 180.225 535.08H163.216ZM163.217 534.163C163.216 534.468 163.216 534.774 163.216 535.08H180.225C180.225 534.791 180.226 534.502 180.227 534.213L163.217 534.163ZM218.83 520.698C201.602 524.769 185.99 526.25 172.064 525.69L171.38 542.686C187.017 543.315 204.18 541.638 222.742 537.252L218.83 520.698ZM229.245 535.067C229.245 533.076 229.26 531.088 229.29 529.104L212.282 528.846C212.251 530.917 212.235 532.99 212.235 535.067H229.245ZM230.893 568.115C229.806 557.299 229.245 546.276 229.245 535.067H212.235C212.235 546.845 212.825 558.435 213.968 569.816L230.893 568.115ZM218.052 561.674C192.154 577.228 179.053 597.965 176.656 619.701L193.563 621.565C195.285 605.959 204.677 589.549 226.81 576.256L218.052 561.674ZM283.424 372.742C288.439 372.272 294.897 372.334 302.938 372.433L303.148 355.424C295.411 355.329 287.943 355.234 281.836 355.806L283.424 372.742ZM290.665 367.061C312.598 303.822 382.249 267.028 449.999 246.122C483.485 235.79 515.694 229.589 539.764 225.97C551.788 224.163 561.751 223.004 568.79 222.296C572.309 221.942 575.092 221.701 577.031 221.549C579.107 221.386 579.995 221.342 579.901 221.344L579.559 204.337C577.246 204.384 513.867 208.613 444.983 229.869C376.702 250.939 299.447 289.829 274.595 361.487L290.665 367.061ZM579.556 221.344C586.648 221.488 685.964 225.399 775.39 297.781L786.092 284.559C692.349 208.683 588.494 204.513 579.903 204.337L579.556 221.344ZM775.392 297.782C804.244 321.124 829.428 348.215 849.598 378.19L863.71 368.694C842.534 337.224 816.173 308.896 786.09 284.558L775.392 297.782ZM841.35 399.321C845.084 392.988 851.454 386.259 860.903 380.809L852.405 366.074C840.589 372.889 832.023 381.65 826.698 390.68L841.35 399.321ZM798.694 366.428C804.31 367.255 810.228 369.473 815.052 373.843C819.767 378.116 824.022 384.967 825.602 396.187L842.446 393.815C840.373 379.099 834.454 368.469 826.473 361.238C818.6 354.105 809.299 350.797 801.173 349.6L798.694 366.428ZM806.849 353.064C798.584 341.516 789.745 330.648 780.473 320.544L767.94 332.045C776.746 341.642 785.152 351.975 793.017 362.964L806.849 353.064ZM774.207 326.294C780.834 320.964 780.831 320.961 780.828 320.957C780.827 320.955 780.824 320.951 780.821 320.948C780.815 320.941 780.809 320.933 780.801 320.923C780.784 320.903 780.763 320.877 780.737 320.844C780.684 320.78 780.611 320.691 780.518 320.578C780.332 320.353 780.064 320.033 779.717 319.624C779.021 318.808 778.005 317.638 776.672 316.167C774.007 313.225 770.077 309.073 764.925 304.127C754.627 294.241 739.412 281.144 719.639 268.183C680.094 242.263 622.09 216.751 548.71 218.847L549.196 235.85C618.206 233.879 672.83 257.84 710.314 282.41C729.055 294.694 743.456 307.096 753.144 316.398C757.986 321.045 761.641 324.91 764.064 327.585C765.276 328.923 766.178 329.962 766.766 330.653C767.06 330.998 767.276 331.256 767.411 331.42C767.479 331.502 767.527 331.561 767.555 331.595C767.57 331.613 767.579 331.624 767.583 331.629C767.585 331.631 767.585 331.632 767.585 331.632C767.585 331.631 767.583 331.63 767.583 331.63C767.582 331.628 767.58 331.625 774.207 326.294ZM548.953 227.349C549.138 218.846 549.136 218.846 549.134 218.846C549.133 218.846 549.131 218.846 549.129 218.846C549.125 218.846 549.121 218.846 549.116 218.846C549.106 218.845 549.093 218.845 549.077 218.845C549.046 218.844 549.004 218.844 548.951 218.843C548.845 218.841 548.695 218.839 548.504 218.838C548.121 218.834 547.569 218.832 546.86 218.836C545.442 218.844 543.39 218.875 540.788 218.969C535.586 219.157 528.171 219.596 519.206 220.595C501.308 222.59 477.063 226.838 451.853 235.893L457.603 251.902C481.213 243.422 504.08 239.396 521.09 237.5C529.578 236.554 536.566 236.143 541.403 235.968C543.82 235.881 545.697 235.852 546.953 235.846C547.58 235.842 548.052 235.844 548.358 235.847C548.511 235.848 548.623 235.85 548.691 235.851C548.726 235.851 548.749 235.852 548.762 235.852C548.769 235.852 548.772 235.852 548.773 235.852C548.774 235.852 548.774 235.852 548.773 235.852C548.772 235.852 548.771 235.852 548.771 235.852C548.77 235.852 548.768 235.852 548.953 227.349ZM451.85 235.895C340.516 275.938 305.694 330.14 295.003 361.157L311.084 366.7C319.786 341.453 350.15 290.549 457.607 251.901L451.85 235.895ZM237.332 381.124C238.014 380.876 239.809 380.584 242.213 381.017C244.503 381.429 246.81 382.409 248.691 384.04L259.834 371.188C251.059 363.58 239.099 362.381 231.518 365.138L237.332 381.124ZM218.781 376.559C223.193 377.885 227.331 379.37 231.12 380.968L237.73 365.294C233.34 363.443 228.627 361.756 223.675 360.268L218.781 376.559ZM347.675 239.054C292.945 269.754 246.607 312.719 214.054 363.846L228.402 372.982C259.359 324.362 303.566 283.299 355.996 253.889L347.675 239.054ZM362.879 246.608L358.452 241.127L345.22 251.816L349.647 257.296L362.879 246.608ZM261.993 381.162C284.636 331.829 318.371 289.567 361.217 258.865L351.309 245.039C305.87 277.598 270.31 322.264 246.533 374.066L261.993 381.162ZM328.217 211.393C319.639 215.017 290.831 229.156 259.073 253.502C227.338 277.83 192.062 312.805 171.436 358.256L186.926 365.286C205.961 323.34 238.885 290.412 269.422 267.002C299.934 243.61 327.468 230.175 334.836 227.062L328.217 211.393ZM320.522 224.429C325.385 223.484 328.453 223.137 330.249 223.084C331.154 223.058 331.475 223.115 331.413 223.104C331.368 223.096 331.102 223.047 330.701 222.891C330.311 222.738 329.614 222.414 328.86 221.77C326.931 220.126 325.914 217.503 326.306 214.897C326.594 212.989 327.516 211.9 327.644 211.746C327.998 211.321 328.009 211.452 327.388 211.798L335.665 226.658C337.151 225.83 339.165 224.49 340.708 222.64C341.43 221.774 342.742 219.984 343.127 217.43C343.616 214.178 342.404 210.965 339.897 208.828C337.924 207.145 335.697 206.588 334.377 206.354C332.884 206.09 331.303 206.036 329.747 206.082C326.621 206.174 322.526 206.711 317.275 207.732L320.522 224.429ZM216.5 284.002C256.807 237.251 303.669 227.756 320.545 224.425L317.251 207.737C299.27 211.286 247.72 221.741 203.617 272.895L216.5 284.002ZM176.759 363.634C180.549 345.455 190.707 313.952 216.503 283.999L203.614 272.898C175.422 305.633 164.3 340.053 160.107 360.162L176.759 363.634ZM168.844 370.393C172.218 370.23 175.604 370.193 178.979 370.274L179.383 353.269C175.616 353.179 171.822 353.219 168.023 353.403L168.844 370.393ZM908.686 349.248C884.262 291.293 834.554 242.159 782.526 221.549L776.262 237.363C823.739 256.171 870.229 301.795 893.011 355.854L908.686 349.248ZM878.279 274.361C883.865 281.116 888.043 294.268 890.434 309.952C892.76 325.211 893.153 341.142 892.366 351.933L909.331 353.169C910.212 341.091 909.764 323.885 907.25 307.389C904.8 291.32 900.136 274.101 891.388 263.521L878.279 274.361ZM814.108 238.631C832.286 242.015 844.964 247.029 854.655 252.989C864.331 258.94 871.448 266.086 878.275 274.356L891.392 263.526C883.884 254.433 875.399 245.778 863.566 238.5C851.748 231.232 837.009 225.592 817.222 221.908L814.108 238.631ZM779.993 237.94C790.278 237.214 804.066 237.938 815.036 238.751L816.294 221.788C805.314 220.974 790.432 220.151 778.795 220.972L779.993 237.94ZM742.083 905.334C721.221 916.406 694.533 923.809 671.414 928.335C659.924 930.584 649.472 932.092 641.291 932.987C632.856 933.91 627.426 934.114 625.662 933.982L624.395 950.945C627.899 951.206 634.749 950.815 643.141 949.896C651.788 948.95 662.712 947.371 674.682 945.028C698.482 940.369 727.047 932.57 750.057 920.359L742.083 905.334ZM845.952 791.559C830.568 823.547 818.435 844.432 803.427 861.053C788.506 877.576 770.316 890.351 742.083 905.334L750.057 920.359C779.138 904.925 799.259 891.05 816.052 872.452C832.757 853.952 845.741 831.245 861.281 798.932L845.952 791.559ZM910.664 705.038C892.746 721.09 870.052 741.499 845.953 791.556L861.28 798.935C884.045 751.647 904.98 732.968 922.014 717.707L910.664 705.038ZM927.966 688.06C923.129 693.85 917.501 698.912 910.664 705.038L922.014 717.707C928.679 711.736 935.259 705.862 941.02 698.966L927.966 688.06ZM945.914 662.962C941.496 670.513 936.679 677.563 927.948 688.081L941.037 698.945C950.282 687.807 955.653 680.001 960.596 671.551L945.914 662.962ZM952.759 648.97C950.644 654.195 948.437 658.641 945.911 662.967L960.599 671.546C963.54 666.51 966.107 661.329 968.526 655.352L952.759 648.97ZM968.174 640.752C961.89 638.782 957.365 642.336 955.446 644.553C954.472 645.678 953.815 646.789 953.417 647.549C953.208 647.948 953.045 648.297 952.926 648.571C952.866 648.708 952.815 648.83 952.774 648.932C952.753 648.983 952.735 649.029 952.719 649.071C952.711 649.091 952.703 649.111 952.696 649.129C952.693 649.138 952.69 649.147 952.686 649.156C952.685 649.16 952.683 649.164 952.682 649.168C952.681 649.17 952.68 649.173 952.679 649.174C952.678 649.177 952.677 649.18 960.643 652.161C968.608 655.142 968.607 655.145 968.606 655.148C968.605 655.149 968.604 655.152 968.604 655.154C968.602 655.158 968.601 655.161 968.599 655.165C968.596 655.173 968.594 655.18 968.591 655.187C968.586 655.201 968.581 655.214 968.576 655.227C968.566 655.252 968.557 655.274 968.549 655.293C968.534 655.332 968.521 655.361 968.512 655.382C968.495 655.422 968.485 655.44 968.482 655.447C968.479 655.453 968.471 655.468 968.453 655.495C968.437 655.519 968.391 655.588 968.306 655.686C968.18 655.832 967.676 656.385 966.693 656.793C965.524 657.278 964.202 657.333 963.086 656.983L968.174 640.752ZM966.643 655.588C974.495 658.858 974.496 658.856 974.497 658.854C974.497 658.853 974.498 658.85 974.498 658.849C974.5 658.846 974.501 658.843 974.502 658.839C974.505 658.833 974.508 658.826 974.511 658.818C974.517 658.803 974.524 658.787 974.531 658.769C974.546 658.733 974.563 658.691 974.581 658.643C974.619 658.548 974.665 658.428 974.717 658.287C974.82 658.007 974.951 657.633 975.088 657.188C975.349 656.341 975.694 655.039 975.857 653.542C976.006 652.167 976.095 649.846 975.181 647.392C974.109 644.515 971.778 641.877 968.165 640.749L963.095 656.986C962.302 656.738 961.428 656.265 960.658 655.502C959.907 654.759 959.476 653.961 959.242 653.332C959.018 652.73 958.964 652.263 958.948 652.042C958.94 651.921 958.941 651.832 958.942 651.782C958.944 651.731 958.947 651.704 958.947 651.704C958.947 651.703 958.945 651.718 958.94 651.749C958.934 651.78 958.926 651.821 958.915 651.87C958.892 651.972 958.863 652.081 958.831 652.185C958.799 652.288 958.772 652.364 958.759 652.398C958.753 652.414 958.752 652.417 958.757 652.405C958.759 652.399 958.763 652.389 958.769 652.375C958.772 652.368 958.775 652.36 958.779 652.35C958.781 652.345 958.783 652.34 958.785 652.335C958.786 652.333 958.787 652.33 958.789 652.327C958.789 652.326 958.79 652.324 958.79 652.323C958.791 652.321 958.792 652.319 966.643 655.588ZM937.15 718.452C955.865 697.439 967.813 676.183 974.578 658.65L958.709 652.527C952.672 668.171 941.791 687.666 924.448 707.139L937.15 718.452ZM923.542 733.469C927.922 728.673 932.479 723.683 937.143 718.46L924.455 707.131C919.865 712.272 915.37 717.193 910.982 721.999L923.542 733.469ZM874.612 801.091C883.794 777.151 901.129 758.011 923.542 733.469L910.982 721.999C889.066 745.995 869.275 767.507 858.73 795L874.612 801.091ZM871.786 808.588C872.819 805.825 873.752 803.33 874.61 801.097L858.733 794.994C857.841 797.314 856.879 799.888 855.853 802.632L871.786 808.588ZM871.766 808.642L871.767 808.638L855.872 802.582L855.87 802.586L871.766 808.642ZM771.647 943.803C802.342 929.13 824.165 903.601 839.817 877.942C855.479 852.266 865.361 825.778 871.785 808.592L855.852 802.636C849.407 819.878 840.014 844.955 825.296 869.084C810.568 893.229 790.906 915.743 764.311 928.456L771.647 943.803ZM622.231 957.913C675.749 967.617 731.689 962.939 771.653 943.8L764.306 928.459C728.42 945.644 676.32 950.434 625.266 941.176L622.231 957.913ZM625.029 933.958C622.212 933.958 619.435 934.487 617.041 935.384C615.025 936.139 611.784 937.709 609.787 940.841C608.623 942.665 607.675 945.421 608.436 948.595C609.164 951.629 611.108 953.585 612.664 954.696C615.505 956.724 619.247 957.555 622.698 957.984L624.799 941.104C623.539 940.948 622.747 940.768 622.307 940.637C621.811 940.489 622.031 940.483 622.549 940.852C623.072 941.226 624.441 942.394 624.977 944.629C625.547 947.005 624.791 948.949 624.129 949.987C623.538 950.913 622.936 951.312 622.868 951.357C622.741 951.442 622.769 951.402 623.008 951.313C623.502 951.128 624.258 950.968 625.029 950.968V933.958ZM256.644 894.259C277.576 920.353 314.29 941.369 341.942 948.723L346.314 932.284C321.613 925.716 288.238 906.46 269.912 883.615L256.644 894.259ZM262.894 887.014C262.062 884.631 261.493 882.785 261.129 881.393C260.746 879.934 260.661 879.245 260.65 879.086C260.645 879.008 260.679 879.342 260.581 879.919C260.494 880.427 260.186 881.839 258.981 883.274C257.548 884.979 255.506 885.929 253.462 886.051C251.756 886.152 250.545 885.657 250.125 885.467C249.324 885.104 249.122 884.789 249.649 885.285C250.037 885.65 250.597 886.245 251.32 887.103C252.758 888.81 254.478 891.129 256.252 893.729L270.304 884.144C268.344 881.271 266.268 878.446 264.33 876.145C263.365 874.999 262.343 873.874 261.314 872.905C260.424 872.067 258.971 870.801 257.146 869.974C256.214 869.552 254.547 868.946 252.45 869.071C250.014 869.216 247.645 870.323 245.957 872.332C244.496 874.071 244.005 875.934 243.814 877.052C243.611 878.239 243.62 879.341 243.677 880.204C243.885 883.355 245.077 887.584 246.834 892.619L262.894 887.014ZM292.327 920.324C288.113 917.473 281.277 910.94 274.902 903.67C271.787 900.119 268.95 896.581 266.752 893.485C264.421 890.202 263.241 888.012 262.896 887.021L246.832 892.612C248.014 896.009 250.401 899.838 252.883 903.333C255.497 907.015 258.718 911.014 262.113 914.885C268.755 922.46 276.741 930.316 282.795 934.412L292.327 920.324ZM339.125 939.081C338.166 938.959 335.439 938.272 331.096 936.866C326.999 935.54 322.038 933.767 316.957 931.794C306.481 927.728 296.586 923.235 292.361 920.347L282.762 934.39C288.817 938.529 300.458 943.637 310.802 947.652C316.13 949.72 321.4 951.607 325.858 953.05C330.07 954.413 334.222 955.603 336.97 955.954L339.125 939.081ZM341.919 948.716C342.927 948.987 344.82 949.681 346.646 950.557C347.534 950.983 348.244 951.374 348.726 951.683C349.38 952.102 349.081 952.028 348.569 951.374C348.307 951.038 347.497 949.934 347.222 948.158C346.884 945.981 347.503 943.72 348.933 942.016C350.098 940.627 351.362 940.126 351.691 940.004C352.107 939.851 352.278 939.854 352.008 939.89C350.656 940.069 346.927 940.057 339.104 939.078L336.991 955.957C344.83 956.938 350.503 957.248 354.243 956.752C355.246 956.619 356.42 956.392 357.6 955.955C358.694 955.55 360.483 954.714 361.965 952.947C363.711 950.866 364.438 948.185 364.031 945.555C363.686 943.327 362.628 941.739 361.969 940.897C360.666 939.23 358.985 938.055 357.908 937.365C356.66 936.564 355.292 935.838 353.999 935.218C351.462 934.002 348.576 932.893 346.337 932.29L341.919 948.716ZM87.1583 697.787C92.181 703.538 97.2011 709.189 102.151 714.761L114.867 703.464C109.91 697.884 104.938 692.286 99.9705 686.598L87.1583 697.787ZM102.151 714.761C129.229 745.241 154.092 773.305 170.812 807.245L186.071 799.728C168.165 763.38 141.675 733.639 114.867 703.464L102.151 714.761ZM170.805 807.231C178.995 823.929 185.6 841.369 192.372 859.267L208.282 853.247C201.557 835.475 194.679 817.28 186.077 799.741L170.805 807.231ZM192.372 859.267C199.638 878.47 207.097 898.206 216.749 917.148L231.905 909.425C222.746 891.451 215.602 872.594 208.282 853.247L192.372 859.267ZM216.752 917.153C244.032 970.605 303.01 1001.08 364.136 1002.09L364.418 985.086C308.276 984.154 255.774 956.194 231.902 909.42L216.752 917.153ZM364.127 1002.09C395.189 1002.64 425.462 997.889 455.198 993.24L452.571 976.435C422.594 981.121 393.774 985.604 364.427 985.086L364.127 1002.09ZM454.824 993.291L454.826 993.29L452.947 976.384L452.945 976.385L454.824 993.291ZM455.2 993.24C470.148 990.904 484.969 988.588 499.956 986.892L498.044 969.99C482.639 971.733 467.464 974.107 452.573 976.434L455.2 993.24ZM499.958 986.892C539.225 982.441 577.54 987.959 617.009 993.691L619.454 976.858C580.322 971.175 539.844 965.252 498.042 969.99L499.958 986.892ZM617.009 993.691C652.831 998.893 689.644 1004.27 727.338 1001.47L726.077 984.508C690.549 987.149 655.578 982.104 619.454 976.858L617.009 993.691ZM727.343 1001.47C754.782 999.415 786.148 988.827 813.135 970.593C840.162 952.334 863.332 926.027 873.37 892.239L857.065 887.395C848.408 916.534 828.22 939.874 803.613 956.499C778.968 973.15 750.426 982.684 726.072 984.508L727.343 1001.47ZM873.371 892.237C887.107 845.959 899.213 817.896 916.377 792.447C933.704 766.756 956.372 743.41 992.142 706.634L979.948 694.774C944.519 731.2 920.632 755.717 902.275 782.936C883.755 810.395 871.047 840.288 857.064 887.397L873.371 892.237ZM992.141 706.635L993.209 705.537L981.016 693.677L979.948 694.774L992.141 706.635ZM993.206 705.54C1022.82 675.129 1034.16 634.217 1034.49 596.055L1017.48 595.907C1017.17 631.087 1006.72 667.278 981.019 693.674L993.206 705.54ZM1034.49 596.049C1034.93 540.785 1021.71 507.08 1006.7 481.406L992.013 489.992C1005.59 513.21 1017.89 543.924 1017.48 595.913L1034.49 596.049ZM967.321 368.335C964.566 334.101 959.674 299.492 945.512 269.776C931.157 239.656 907.432 214.876 867.966 200.214L862.042 216.159C897.157 229.205 917.608 250.764 930.157 277.094C942.898 303.829 947.636 335.782 950.366 369.699L967.321 368.335ZM867.962 200.213C844.652 191.565 821.492 186.939 799.078 182.446L795.734 199.124C818.324 203.652 840.188 208.052 862.046 216.161L867.962 200.213ZM799.078 182.446C778.308 178.282 758.179 174.235 738.082 167.303L732.535 183.383C753.884 190.747 775.121 194.992 795.734 199.124L799.078 182.446ZM738.072 167.299C718.171 160.461 700.363 146.416 681.741 131.611L671.155 144.925C689.277 159.332 709.378 175.426 732.545 183.386L738.072 167.299ZM681.741 131.611C670.644 122.788 659.214 113.683 647.427 106.625L638.688 121.218C649.331 127.592 659.86 135.945 671.155 144.925L681.741 131.611ZM647.427 106.625C631.898 97.3269 611.4 87.8412 597.192 84.0485L592.805 100.483C604.973 103.731 623.973 112.408 638.688 121.219L647.427 106.625ZM597.171 84.043C575.328 78.2708 553.257 78.4241 533.041 78.5214L533.123 95.5311C553.69 95.4321 573.509 95.3838 592.825 100.488L597.171 84.043ZM533.041 78.5214C530.029 78.5359 527.058 78.5502 524.106 78.5468L524.087 95.5567C527.098 95.5602 530.119 95.5456 533.123 95.5311L533.041 78.5214ZM523.761 78.5534C489.012 79.9267 457.426 94.0315 433.456 108.728C409.408 123.472 392.418 139.189 386.796 144.508L398.486 156.864C403.745 151.889 419.752 137.082 442.346 123.229C465.018 109.329 493.72 96.7638 524.432 95.5501L523.761 78.5534ZM386.704 144.596C380.543 150.601 369.702 157.344 357.698 163.007C345.729 168.653 333.707 172.71 325.616 173.918L328.129 190.742C338.521 189.19 352.235 184.392 364.956 178.391C377.641 172.406 390.443 164.706 398.577 156.776L386.704 144.596ZM325.874 173.884C323.15 174.206 319.668 174.533 315.427 174.93L317.013 191.866C321.178 191.476 324.896 191.128 327.871 190.776L325.874 173.884ZM315.427 174.93C300.658 176.314 277.924 178.435 254.132 183.787C230.439 189.118 204.935 197.808 184.911 212.776L195.095 226.4C212.339 213.51 235.159 205.491 257.865 200.383C280.472 195.297 302.212 193.252 317.013 191.866L315.427 174.93ZM184.313 213.266C182.665 214.749 181 216.23 179.309 217.734L190.611 230.446C192.295 228.948 194 227.433 195.692 225.91L184.313 213.266ZM179.303 217.739L179.297 217.744L190.611 230.445L190.617 230.441L179.303 217.739ZM179.303 217.739C164.545 230.86 147.583 245.736 139.182 267.521L155.053 273.641C161.731 256.326 175.321 244.04 190.605 230.451L179.303 217.739ZM139.181 267.525C129.253 293.307 127.785 319.124 126.32 343.836L143.3 344.842C144.786 319.773 146.222 296.575 155.054 273.637L139.181 267.525ZM126.32 343.836C125.841 351.929 125.368 359.9 124.629 367.896L141.566 369.462C142.335 361.14 142.823 352.89 143.3 344.842L126.32 343.836ZM76.1581 476.373C36.7606 548.672 30.1757 632.533 87.1582 697.787L99.9706 686.598C49.2684 628.537 53.773 553.002 91.0944 484.512L76.1581 476.373Z" fill="black"/>
<path d="M183.714 466.326C182.418 466.326 181.527 466.812 181.041 467.784C180.555 468.594 180.231 469.728 180.069 471.186H177.153V437.166H180.069C180.393 440.082 181.608 441.54 183.714 441.54H255.399V444.456C252.807 444.618 251.511 445.995 251.511 448.587V488.924C251.511 490.058 251.673 491.03 251.997 491.84C252.321 492.65 253.131 493.055 254.427 493.055H255.642V495.971C233.61 507.635 207.528 513.467 177.396 513.467C167.19 513.467 157.308 512.252 147.75 509.822C138.354 507.23 130.011 503.261 122.721 497.915C115.431 492.569 109.518 485.846 104.982 477.746C100.609 469.485 98.4215 459.846 98.4215 448.83C98.4215 437.814 100.609 428.256 104.982 420.156C109.518 411.894 115.431 405.09 122.721 399.744C130.011 394.236 138.354 390.186 147.75 387.594C157.308 384.84 167.19 383.463 177.396 383.463C181.446 383.463 185.01 383.544 188.088 383.706C191.166 383.868 194.163 384.192 197.079 384.678C199.995 385.164 202.992 385.812 206.07 386.622C209.148 387.27 212.793 388.161 217.005 389.295C221.055 390.429 224.781 391.806 228.183 393.426C231.585 394.884 233.772 395.613 234.744 395.613C236.04 395.613 237.174 394.965 238.146 393.669L241.062 394.641L225.267 426.717L222.351 425.016C222.675 424.044 222.837 423.153 222.837 422.343C222.837 421.209 221.46 419.994 218.706 418.698C215.952 417.24 212.469 415.944 208.257 414.81C204.045 413.676 199.266 412.704 193.92 411.894C188.736 411.084 183.633 410.679 178.611 410.679C172.779 410.679 167.19 411.489 161.844 413.109C156.66 414.567 151.962 416.916 147.75 420.156C143.7 423.396 140.46 427.446 138.03 432.306C135.6 437.004 134.385 442.674 134.385 449.316C134.385 455.796 135.843 461.466 138.759 466.326C141.675 471.024 145.32 474.912 149.694 477.989C154.23 481.067 159.252 483.335 164.76 484.793C170.268 486.251 175.695 486.98 181.041 486.98C187.845 486.98 193.92 486.575 199.266 485.765C204.774 484.955 210.039 483.821 215.061 482.363V466.326H183.714ZM410.111 483.092C411.407 483.092 412.379 482.687 413.027 481.877C413.675 480.905 414.161 479.042 414.485 476.288H417.401V518.327H414.485C414.161 515.735 413.675 514.115 413.027 513.467C412.379 512.981 411.407 512.738 410.111 512.738H283.266V509.822C286.344 509.498 288.207 509.012 288.855 508.364C289.665 507.554 290.07 506.582 290.07 505.448V392.211C290.07 391.077 289.665 390.186 288.855 389.538C288.207 388.728 286.344 388.161 283.266 387.837V384.921H333.323V387.837C330.245 388.161 328.301 388.728 327.491 389.538C326.843 390.186 326.519 391.077 326.519 392.211V483.092H410.111ZM541.085 466.083C540.761 464.463 540.032 463.167 538.898 462.195C537.926 461.061 536.225 460.494 533.795 460.494H488.597V483.092H566.6C567.896 483.092 568.868 482.687 569.516 481.877C570.164 480.905 570.65 478.88 570.974 475.802H573.89V517.355H570.974C570.65 515.249 570.164 513.953 569.516 513.467C568.868 512.981 567.896 512.738 566.6 512.738H445.344V509.822C448.422 509.498 450.285 509.012 450.933 508.364C451.743 507.554 452.148 506.582 452.148 505.448V392.211C452.148 391.077 451.743 390.186 450.933 389.538C450.285 388.728 448.422 388.161 445.344 387.837V384.921H566.6C567.896 384.921 568.868 384.516 569.516 383.706C570.164 382.734 570.65 380.871 570.974 378.117H573.89V420.399H570.974C570.65 417.645 570.164 415.863 569.516 415.053C568.868 414.081 567.896 413.595 566.6 413.595H488.597V433.764H533.795C536.225 433.764 537.926 433.278 538.898 432.306C540.032 431.172 540.761 429.795 541.085 428.175H544.001V466.083H541.085ZM691.013 486.98C699.761 486.98 705.917 485.927 709.481 483.821C713.045 481.553 714.827 477.746 714.827 472.401C714.827 467.055 713.045 463.329 709.481 461.223C705.917 458.955 699.761 457.821 691.013 457.821H649.704V486.98H691.013ZM682.751 433.035C687.935 433.035 692.228 432.954 695.63 432.792C699.032 432.468 701.705 431.901 703.649 431.091C705.593 430.281 706.97 429.147 707.78 427.689C708.59 426.231 708.995 424.287 708.995 421.857C708.995 419.427 708.59 417.483 707.78 416.025C706.97 414.567 705.593 413.433 703.649 412.623C701.705 411.813 699.032 411.327 695.63 411.165C692.228 410.841 687.935 410.679 682.751 410.679H649.704V433.035H682.751ZM613.254 392.211C613.254 391.077 612.849 390.186 612.039 389.538C611.391 388.728 609.528 388.161 606.45 387.837V384.921H699.032C705.674 384.921 711.749 385.569 717.257 386.865C722.765 388.161 727.544 390.186 731.594 392.94C735.644 395.532 738.803 399.015 741.071 403.389C743.339 407.601 744.473 412.704 744.473 418.698C744.473 425.988 742.286 431.901 737.912 436.437C733.538 440.811 727.949 443.727 721.145 445.185V445.671C729.407 447.939 736.13 451.422 741.314 456.12C746.66 460.818 749.333 467.703 749.333 476.774C749.333 481.634 748.361 486.251 746.417 490.625C744.635 494.999 741.719 498.806 737.669 502.046C733.781 505.286 728.678 507.878 722.36 509.822C716.204 511.766 708.833 512.738 700.247 512.738H606.45V509.822C609.528 509.498 611.391 509.012 612.039 508.364C612.849 507.554 613.254 506.582 613.254 505.448V392.211ZM774.041 438.381C779.063 436.437 783.68 433.764 787.892 430.362C792.266 426.798 795.02 422.181 796.154 416.511C789.836 416.511 784.409 415.053 779.873 412.137C775.499 409.059 773.312 404.118 773.312 397.314C773.312 391.644 775.337 387.189 779.387 383.949C783.437 380.709 788.135 379.089 793.481 379.089C800.609 379.089 805.793 381.519 809.033 386.379C812.435 391.077 814.136 396.666 814.136 403.146C814.136 408.978 812.921 414.162 810.491 418.698C808.223 423.234 805.226 427.284 801.5 430.848C797.774 434.412 793.481 437.49 788.621 440.082C783.761 442.512 778.901 444.537 774.041 446.157V438.381ZM861.112 463.41C860.788 464.382 860.626 466.083 860.626 468.513C860.626 470.133 862.084 471.996 865 474.102C868.078 476.045 871.966 477.908 876.664 479.69C881.524 481.472 887.032 483.011 893.188 484.307C899.344 485.441 905.581 486.008 911.899 486.008C924.049 486.008 932.959 484.631 938.629 481.877C944.299 478.961 947.134 474.831 947.134 469.485C947.134 466.569 944.623 464.544 939.601 463.41C934.741 462.114 928.585 461.142 921.133 460.494C913.681 459.684 905.662 458.874 897.076 458.064C888.49 457.092 880.471 455.472 873.019 453.204C865.567 450.774 859.33 447.372 854.308 442.998C849.448 438.462 847.018 432.306 847.018 424.53C847.018 418.374 848.395 412.785 851.149 407.763C854.065 402.741 858.034 398.448 863.056 394.884C868.24 391.32 874.477 388.566 881.767 386.622C889.057 384.516 897.157 383.463 906.067 383.463C914.329 383.463 922.024 384.03 929.152 385.164C936.28 386.136 942.598 387.27 948.106 388.566C953.614 389.862 958.231 391.077 961.957 392.211C965.683 393.183 968.356 393.669 969.976 393.669C971.596 393.669 972.892 393.345 973.864 392.697C974.836 391.887 975.727 390.996 976.537 390.024L979.21 390.996L962.443 424.773L959.527 423.315V420.642C959.527 419.184 957.907 417.726 954.667 416.268C951.589 414.648 947.62 413.271 942.76 412.137C937.9 410.841 932.473 409.788 926.479 408.978C920.485 408.168 914.653 407.763 908.983 407.763C898.453 407.763 891.082 408.978 886.87 411.408C882.658 413.838 880.552 416.43 880.552 419.184C880.552 421.938 882.01 424.044 884.926 425.502C887.842 426.798 891.649 427.77 896.347 428.418C901.045 429.066 906.391 429.633 912.385 430.119C918.379 430.443 924.535 431.01 930.853 431.82C937.171 432.63 943.327 433.764 949.321 435.222C955.315 436.68 960.661 438.867 965.359 441.783C970.057 444.537 973.864 448.263 976.78 452.961C979.696 457.497 981.154 463.248 981.154 470.214C981.154 475.559 980.02 480.824 977.752 486.008C975.646 491.192 971.92 495.89 966.574 500.102C961.39 504.152 954.343 507.392 945.433 509.822C936.685 512.252 925.75 513.467 912.628 513.467C902.422 513.467 893.593 512.981 886.141 512.009C878.851 511.037 872.614 509.903 867.43 508.607C862.246 507.149 858.115 505.853 855.037 504.719C852.121 503.585 849.934 503.018 848.476 503.018C847.504 503.018 846.613 503.342 845.803 503.99C845.155 504.638 844.426 505.367 843.616 506.177L840.7 505.448L858.682 462.195L861.112 463.41ZM303.96 614.837C304.09 614.448 304.155 614.059 304.155 613.671C304.284 613.152 304.349 612.569 304.349 611.921C304.349 610.884 303.442 609.847 301.628 608.811C299.943 607.774 297.61 606.867 294.629 606.089C291.778 605.182 288.473 604.469 284.715 603.951C280.956 603.303 277.004 602.979 272.856 602.979C268.969 602.979 264.886 603.432 260.609 604.34C256.333 605.247 252.38 606.737 248.751 608.811C245.252 610.884 242.336 613.671 240.003 617.17C237.8 620.539 236.698 624.687 236.698 629.611C236.698 634.536 237.8 638.748 240.003 642.247C242.336 645.617 245.252 648.338 248.751 650.412C252.38 652.486 256.333 653.976 260.609 654.883C264.886 655.79 268.969 656.244 272.856 656.244C274.541 656.244 277.198 655.985 280.827 655.466C284.456 654.818 288.084 653.976 291.713 652.939C295.342 651.902 298.517 650.736 301.239 649.44C304.09 648.144 305.516 646.783 305.516 645.358C305.516 644.71 305.386 644.191 305.127 643.802C304.868 643.414 304.608 642.96 304.349 642.442L306.487 641.081L326.511 671.602L324.178 672.962C323.919 672.314 323.53 671.926 323.011 671.796C322.623 671.537 322.104 671.407 321.456 671.407C320.549 671.407 318.735 671.99 316.013 673.157C313.291 674.194 309.727 675.36 305.321 676.656C301.044 677.822 295.99 678.924 290.158 679.961C284.326 680.868 277.781 681.321 270.524 681.321C262.748 681.321 255.037 680.349 247.39 678.405C239.744 676.332 232.875 673.157 226.784 668.88C220.693 664.474 215.768 659.03 212.01 652.55C208.251 645.941 206.372 638.295 206.372 629.611C206.372 620.928 208.251 613.347 212.01 606.867C215.768 600.257 220.693 594.814 226.784 590.537C232.875 586.131 239.744 582.826 247.39 580.623C255.037 578.42 262.748 577.318 270.524 577.318C278.3 577.318 284.974 577.772 290.547 578.679C296.249 579.456 301.044 580.364 304.932 581.4C308.691 582.437 311.607 583.344 313.68 584.122C315.754 584.77 317.309 585.094 318.346 585.094C319.512 585.094 320.484 584.576 321.262 583.539L323.4 584.122L305.904 616.198L303.96 614.837ZM374.27 676.462C374.27 677.11 374.465 677.628 374.854 678.017C375.372 678.276 376.344 678.405 377.77 678.405V680.738H343.361V678.405C344.787 678.146 345.823 677.757 346.471 677.239C347.119 676.591 347.767 675.49 348.415 673.934C348.675 673.286 349.323 671.537 350.359 668.686C351.396 665.834 352.757 662.27 354.442 657.994C356.127 653.587 358.006 648.727 360.079 643.414C362.153 638.1 364.226 632.722 366.3 627.279C368.374 621.706 370.382 616.327 372.326 611.143C374.4 605.83 376.214 601.1 377.77 596.952C379.325 592.805 380.556 589.436 381.463 586.844C382.5 584.252 383.018 582.891 383.018 582.761C383.018 582.113 382.565 581.66 381.658 581.4C380.88 581.141 380.038 580.947 379.13 580.817V578.484H429.869V580.817C428.832 580.947 427.989 581.141 427.341 581.4C426.693 581.66 426.369 582.308 426.369 583.344C426.369 583.604 426.953 585.288 428.119 588.399C429.415 591.509 431.035 595.592 432.979 600.646C434.923 605.571 437.126 611.208 439.588 617.559C442.18 623.779 444.837 630.195 447.559 636.804C450.28 643.284 452.872 649.634 455.335 655.855C457.927 662.076 460.26 667.649 462.333 672.574C463.37 674.906 464.212 676.462 464.86 677.239C465.638 678.017 466.61 678.405 467.776 678.405V680.738H429.48V678.405C431.942 678.276 433.173 677.498 433.173 676.073C433.173 675.943 432.849 675.101 432.201 673.546C431.553 671.861 430.84 670.046 430.063 668.102C429.285 666.029 428.508 664.085 427.73 662.27C427.082 660.456 426.693 659.225 426.564 658.577H380.491C379.195 662.076 378.158 664.927 377.381 667.13C376.603 669.334 375.955 671.083 375.437 672.379C375.048 673.675 374.724 674.647 374.465 675.295C374.335 675.814 374.27 676.202 374.27 676.462ZM421.509 643.025L402.653 596.758L385.351 643.025H421.509ZM558.693 621.641C564.395 621.641 568.283 620.604 570.357 618.531C572.56 616.327 573.661 613.8 573.661 610.949C573.661 608.098 572.56 605.636 570.357 603.562C568.283 601.359 564.395 600.257 558.693 600.257H526.034V621.641H558.693ZM526.034 674.906C526.034 675.814 526.293 676.591 526.811 677.239C527.459 677.757 529.014 678.146 531.477 678.405V680.738H491.431V678.405C493.893 678.146 495.383 677.757 495.902 677.239C496.55 676.591 496.874 675.814 496.874 674.906V584.316C496.874 583.409 496.55 582.696 495.902 582.178C495.383 581.53 493.893 581.076 491.431 580.817V578.484H562.581C576.966 578.484 587.399 581.141 593.879 586.455C600.359 591.639 603.599 599.739 603.599 610.755C603.599 619.697 600.942 626.695 595.628 631.75C590.444 636.804 583.835 640.433 575.8 642.636L598.739 674.906C600.294 677.239 602.173 678.405 604.376 678.405V680.738H563.941V678.405C566.793 678.276 568.218 677.11 568.218 674.906C568.218 674.647 567.7 673.74 566.663 672.185C565.626 670.63 564.33 668.75 562.775 666.547C561.22 664.344 559.47 662.011 557.526 659.549C555.712 656.957 553.897 654.494 552.083 652.162C550.398 649.829 548.908 647.755 547.612 645.941C546.316 644.126 545.474 642.895 545.085 642.247H526.034V674.906ZM691.016 657.799C701.254 657.799 708.641 655.207 713.177 650.023C717.713 644.71 719.981 637.906 719.981 629.611C719.981 621.317 717.713 614.578 713.177 609.394C708.641 604.08 701.254 601.424 691.016 601.424H666.327V657.799H691.016ZM637.168 584.316C637.168 583.409 636.844 582.696 636.196 582.178C635.677 581.53 634.187 581.076 631.724 580.817V578.484H696.265C705.207 578.484 712.983 579.78 719.593 582.372C726.202 584.964 731.645 588.593 735.922 593.259C740.199 597.795 743.374 603.173 745.448 609.394C747.651 615.615 748.752 622.354 748.752 629.611C748.752 636.221 747.586 642.636 745.253 648.857C743.05 654.948 739.616 660.391 734.95 665.186C730.414 669.852 724.712 673.61 717.843 676.462C711.104 679.313 703.198 680.738 694.126 680.738H631.724V678.405C634.187 678.146 635.677 677.757 636.196 677.239C636.844 676.591 637.168 675.814 637.168 674.906V584.316ZM780.572 641.275C780.312 642.053 780.183 643.414 780.183 645.358C780.183 646.654 781.349 648.144 783.682 649.829C786.144 651.384 789.255 652.874 793.013 654.3C796.901 655.726 801.307 656.957 806.232 657.994C811.157 658.901 816.147 659.354 821.201 659.354C830.921 659.354 838.049 658.253 842.585 656.05C847.121 653.717 849.389 650.412 849.389 646.135C849.389 643.802 847.38 642.183 843.362 641.275C839.474 640.239 834.55 639.461 828.588 638.943C822.627 638.295 816.211 637.647 809.343 636.999C802.474 636.221 796.059 634.925 790.097 633.111C784.136 631.167 779.146 628.445 775.128 624.946C771.24 621.317 769.296 616.392 769.296 610.171C769.296 605.247 770.398 600.776 772.601 596.758C774.934 592.74 778.109 589.306 782.127 586.455C786.274 583.604 791.264 581.4 797.095 579.845C802.927 578.16 809.407 577.318 816.535 577.318C823.145 577.318 829.301 577.772 835.003 578.679C840.706 579.456 845.76 580.364 850.166 581.4C854.573 582.437 858.266 583.409 861.247 584.316C864.228 585.094 866.366 585.483 867.662 585.483C868.958 585.483 869.995 585.224 870.773 584.705C871.55 584.057 872.263 583.344 872.911 582.567L875.049 583.344L861.636 610.366L859.303 609.199V607.061C859.303 605.895 858.007 604.728 855.415 603.562C852.953 602.266 849.778 601.164 845.89 600.257C842.002 599.22 837.66 598.378 832.865 597.73C828.07 597.082 823.404 596.758 818.868 596.758C810.444 596.758 804.547 597.73 801.178 599.674C797.808 601.618 796.123 603.692 796.123 605.895C796.123 608.098 797.29 609.783 799.623 610.949C801.955 611.986 805.001 612.763 808.759 613.282C812.518 613.8 816.795 614.254 821.59 614.643C826.385 614.902 831.31 615.355 836.364 616.003C841.418 616.651 846.343 617.559 851.138 618.725C855.934 619.891 860.21 621.641 863.969 623.974C867.727 626.177 870.773 629.158 873.105 632.916C875.438 636.545 876.605 641.146 876.605 646.718C876.605 650.995 875.697 655.207 873.883 659.354C872.198 663.502 869.217 667.26 864.941 670.63C860.794 673.87 855.156 676.462 848.028 678.405C841.03 680.349 832.282 681.321 821.784 681.321C813.619 681.321 806.556 680.933 800.595 680.155C794.763 679.377 789.773 678.47 785.626 677.434C781.479 676.267 778.174 675.23 775.712 674.323C773.379 673.416 771.629 672.962 770.463 672.962C769.685 672.962 768.972 673.222 768.324 673.74C767.806 674.258 767.223 674.842 766.575 675.49L764.242 674.906L778.628 640.303L780.572 641.275Z" fill="black"/>
</g>
<defs>
<clipPath id="clip0_1529_6">
<rect width="1080" height="1080" fill="white"/>
</clipPath>
</defs>
</svg>
