<svg version="1.1" id="Layer_1" xmlns="http://www.w3.org/2000/svg" xmlns:xlink="http://www.w3.org/1999/xlink" x="0px" y="0px"
	 width="100%" viewBox="0 0 1024 1024" enable-background="new 0 0 1024 1024" xml:space="preserve">
<path fill="#000000" opacity="1.000000" stroke="none" 
	d="
M549.392090,778.523438 
	C513.603088,786.627930 478.406616,784.217346 443.528870,775.859192 
	C395.579987,764.368652 353.668213,741.281311 316.942566,708.490540 
	C283.949585,679.032593 257.294830,644.854187 239.184647,604.362122 
	C226.124054,575.160278 218.997452,544.546509 218.584167,512.442993 
	C218.528992,508.157166 219.646347,506.549927 224.214081,506.794342 
	C238.236725,507.544739 252.203415,506.711853 265.898499,503.396973 
	C270.155762,502.366516 271.250366,503.912537 271.245514,507.818085 
	C271.236633,514.978271 271.341034,522.147339 271.724579,529.295288 
	C271.899750,532.559875 269.562378,533.109131 267.596375,534.141113 
	C253.865097,541.348999 243.822250,551.849548 239.323425,566.882507 
	C230.127930,597.609558 249.572235,628.392151 282.518066,635.622742 
	C288.542908,636.944946 294.613190,638.156494 300.806152,637.810547 
	C305.002533,637.576172 307.411011,639.362305 309.638916,642.842896 
	C329.612030,674.046021 355.081116,699.792908 386.659119,719.313904 
	C416.514404,737.769897 448.682800,750.839294 483.624908,754.221375 
	C546.688965,760.325439 603.833191,744.876709 652.615173,702.921692 
	C673.335083,685.101562 689.746033,663.857727 702.483337,639.754639 
	C704.272339,636.369141 706.235596,635.195007 710.019653,636.235107 
	C713.198303,637.108826 716.594299,637.576416 719.888794,637.550415 
	C724.390747,637.514832 725.468994,639.398804 724.347473,643.414734 
	C723.910950,644.977661 723.835571,646.641418 723.447998,649.255737 
	C724.400085,647.797791 725.013062,647.200439 725.223145,646.484863 
	C727.544800,638.577148 733.320190,637.620667 740.629150,637.539490 
	C753.656250,637.394836 766.071838,634.143616 776.587402,625.917114 
	C793.345337,612.806946 796.252136,589.335327 783.212036,572.565186 
	C781.193420,569.969177 780.658691,567.908813 782.400757,564.979736 
	C784.438293,561.553833 785.941284,557.814575 787.790771,554.271057 
	C790.817322,548.472290 791.060425,542.644592 787.254211,537.256714 
	C783.402649,531.804565 777.754578,529.623474 771.113403,530.147217 
	C769.794983,530.251221 768.503174,530.655090 767.187500,530.837769 
	C760.466919,531.770996 756.889893,528.710083 756.906982,522.107727 
	C756.924194,515.476562 756.910767,508.845215 756.910767,502.444794 
	C758.381531,501.116608 759.708435,501.594513 760.958862,501.949768 
	C774.532288,505.806427 788.408813,507.093811 802.466614,507.020142 
	C809.200256,506.984863 809.616516,507.068207 809.786682,513.901550 
	C810.118347,527.221924 809.113892,540.510010 807.102173,553.683167 
	C800.686279,595.696289 784.237183,633.503235 758.901184,667.503845 
	C730.815735,705.194336 695.406616,734.166931 653.633911,755.494812 
	C645.904907,759.440979 644.042786,758.941162 639.151672,751.969971 
	C637.818542,750.069824 636.615173,748.078674 634.936829,745.487976 
	C607.936401,759.815674 579.585876,771.024841 549.392090,778.523438 
z"/>
<path fill="#000000" opacity="1.000000" stroke="none" 
	d="
M841.757446,647.758545 
	C851.298096,637.533508 861.754272,628.618164 868.873169,616.699890 
	C878.918152,599.882812 884.192566,581.761230 884.874390,562.212769 
	C885.851501,534.195801 882.683044,507.002289 869.393433,481.741547 
	C868.768250,480.553253 867.992798,479.240143 868.532471,477.949860 
	C870.704590,472.756866 871.759399,467.231506 873.025391,461.753113 
	C875.657104,462.288666 876.099426,464.299591 877.019043,465.770874 
	C887.685730,482.837250 893.877808,501.573090 896.935852,521.320862 
	C900.554077,544.686157 900.852173,568.035278 895.011353,591.187561 
	C889.797363,611.855347 879.858826,629.811523 864.777466,644.951111 
	C849.373047,660.415100 834.315186,676.206787 820.194580,692.874756 
	C799.329041,717.504395 786.317871,746.145447 777.288086,776.791809 
	C772.454407,793.196594 766.684692,809.123901 755.596680,822.498047 
	C731.277405,851.831604 700.021118,868.766479 662.296753,873.192139 
	C637.464417,876.105347 612.733704,873.105042 588.112793,869.709900 
	C555.985901,865.279846 523.988647,859.333801 491.315521,861.329102 
	C475.187378,862.314026 459.320526,865.351562 443.376801,867.766113 
	C417.016174,871.758057 390.604218,876.277039 363.859528,873.218933 
	C316.423889,867.795044 279.292694,846.568542 257.739441,802.144958 
	C249.356293,784.866272 242.715195,766.891296 236.320389,748.862000 
	C223.916504,713.890930 202.608505,684.828430 178.105957,657.636902 
	C165.969437,644.168518 153.253540,631.143860 143.971817,615.306824 
	C133.564438,597.549194 127.918533,578.329712 126.812874,557.965271 
	C124.924042,523.175842 134.811569,491.189667 151.526703,461.043182 
	C151.926498,460.322144 152.411957,459.641418 152.921921,458.992554 
	C153.106171,458.758118 153.479935,458.672668 154.515671,458.119507 
	C156.567276,465.890839 162.727829,471.815338 157.711594,481.520782 
	C147.304718,501.656097 141.637543,523.313965 141.062012,546.262207 
	C140.255600,578.416321 151.217072,605.856506 172.470764,629.634521 
	C185.903519,644.662781 199.292328,659.727600 211.935898,675.454041 
	C231.874771,700.254517 244.380066,728.809448 255.202652,758.352905 
	C261.327820,775.073364 267.272552,792.002319 276.748779,807.187134 
	C294.946045,836.346497 322.433990,851.504578 355.491760,857.652283 
	C377.593475,861.762573 399.605530,859.247498 421.572021,856.248779 
	C452.214966,852.065735 482.571503,845.460327 513.808838,846.614624 
	C536.841370,847.465698 559.553833,850.804810 582.286194,854.154175 
	C605.522583,857.577820 628.855957,861.229309 652.354797,859.484070 
	C695.253662,856.298035 729.918762,838.162720 752.833679,800.563843 
	C758.443726,791.358704 760.473877,780.722656 763.853027,770.633667 
	C771.110718,748.964417 779.014587,727.593994 791.299927,708.107483 
	C800.404236,693.666565 811.231262,680.602112 822.625061,667.980957 
	C828.762512,661.182434 835.207458,654.661499 841.757446,647.758545 
z"/>
<path fill="#000000" opacity="1.000000" stroke="none" 
	d="
M446.325928,289.369751 
	C423.996613,297.963409 402.606323,307.561981 383.179382,321.071045 
	C363.622437,334.670471 346.572815,350.498413 336.962402,372.947937 
	C336.082397,375.003601 334.745911,376.026855 332.427032,376.149963 
	C323.648651,376.616058 314.782806,374.901642 306.073761,377.287109 
	C303.804932,377.908600 304.976166,375.474426 304.014923,374.497253 
	C301.016785,380.354492 298.082397,386.087158 294.611969,392.867096 
	C290.494904,386.727478 285.271729,382.870178 278.727631,382.840393 
	C272.328522,382.811218 266.885742,379.790924 260.865356,378.799957 
	C259.763855,378.618622 258.552307,378.317078 257.686218,376.781769 
	C259.139130,372.407196 262.262543,368.681274 264.992706,364.824341 
	C290.127106,329.317139 321.918243,301.147583 359.403473,279.203766 
	C367.201477,274.638824 371.552704,276.702118 376.249329,285.767914 
	C378.194183,289.521942 375.747192,292.333405 372.773438,294.674896 
	C366.756836,299.412323 360.826569,304.259521 354.870911,309.074036 
	C354.628448,309.270050 354.489746,309.594391 353.523041,310.961456 
	C366.518707,301.273468 379.549316,294.084381 393.040680,287.788910 
	C422.317291,274.127533 453.028687,264.910919 484.699982,258.716980 
	C501.187531,255.492493 517.737183,252.646332 534.445068,250.957031 
	C554.123413,248.967407 573.205627,253.096710 592.145813,257.671661 
	C650.361816,271.733582 699.428894,301.329163 739.836060,345.375366 
	C749.618408,356.038696 758.708496,367.297974 767.019836,380.517181 
	C757.432617,384.743225 749.504761,390.787811 743.017883,400.199249 
	C741.665771,396.469849 740.797485,394.045227 739.908630,391.628204 
	C735.298767,379.093048 725.206665,371.682404 711.826355,371.424347 
	C708.441650,371.359100 706.363953,370.152100 704.370544,367.522034 
	C677.893494,332.587616 644.486755,306.609497 603.625244,290.550171 
	C570.946228,277.706726 537.010681,273.843018 502.123352,277.059357 
	C483.112579,278.812012 464.707825,283.067566 446.325928,289.369751 
z"/>
<path fill="#000000" opacity="1.000000" stroke="none" 
	d="
M648.509644,228.584900 
	C634.854675,221.018616 623.015076,211.540497 611.259766,201.960159 
	C593.904785,187.816315 575.199524,175.516495 553.278748,170.553680 
	C509.499603,160.642242 467.956757,165.975250 430.315125,192.408478 
	C420.606598,199.226166 411.546417,206.764984 402.567322,214.462921 
	C382.821411,231.391479 359.854645,240.130203 333.969604,242.424637 
	C307.057434,244.810120 280.019104,248.086639 255.962021,261.515686 
	C237.116165,272.035767 220.948181,286.043640 212.654678,306.877716 
	C208.075668,318.380585 206.258423,330.626038 205.329758,342.949951 
	C204.542145,353.402313 203.902527,363.866211 203.263870,374.329102 
	C203.105804,376.918732 202.269577,378.827240 199.545227,379.540070 
	C195.923920,380.487549 192.702316,382.846344 188.692871,382.853180 
	C187.581665,379.834625 188.621506,377.032074 188.766510,374.286926 
	C189.600571,358.495300 190.455688,342.713104 192.522964,327.001587 
	C195.852509,301.696533 207.728241,281.605103 226.635483,264.514984 
	C246.958740,246.144897 271.378418,238.159332 297.179810,232.740417 
	C312.510498,229.520615 328.192810,228.702225 343.675415,226.586227 
	C363.994781,223.809143 381.373962,214.213638 396.667969,200.559982 
	C423.346008,176.743271 453.020874,158.073502 489.153259,153.238983 
	C536.739502,146.871979 580.189392,157.171631 617.651123,188.618042 
	C625.555237,195.253006 633.964233,201.287048 642.148254,207.587967 
	C658.759949,220.377274 678.377319,225.497375 698.376343,229.710815 
	C719.862305,234.237564 741.498535,238.117645 762.489868,244.780228 
	C803.504028,257.798004 828.521729,285.616241 839.057251,327.020782 
	C843.292847,343.666626 845.415466,360.628448 847.166626,377.659241 
	C847.266357,378.629578 847.070068,379.630341 846.982666,381.104370 
	C842.138000,381.707642 837.772095,380.110504 833.641235,378.249359 
	C831.456848,377.265167 832.028381,374.453125 831.854980,372.335358 
	C830.520935,356.041260 828.192993,339.930481 823.406799,324.235504 
	C812.620544,288.864868 788.769165,267.285248 753.631958,257.044617 
	C732.166260,250.788483 710.019287,247.764343 688.403748,242.305161 
	C674.847229,238.881363 661.260864,235.505173 648.509644,228.584900 
z"/>
<path fill="#000000" opacity="1.000000" stroke="none" 
	d="
M775.965393,668.006348 
	C785.258789,656.359497 795.859375,646.499451 806.569519,636.722351 
	C818.266663,626.044128 827.520996,613.525391 833.918518,598.970276 
	C834.386719,597.904968 834.889160,596.843384 835.491577,595.850342 
	C838.258057,591.289795 843.351501,589.476257 847.961975,591.364136 
	C852.498657,593.221802 854.885071,598.152954 853.336670,603.398743 
	C850.628052,612.574829 845.826782,620.774353 840.962341,628.939453 
	C831.758179,644.389221 819.513306,657.409912 807.164612,670.206177 
	C789.028076,689.000061 775.889343,710.429993 767.379333,735.186951 
	C759.717102,757.477234 748.463623,778.072571 733.557800,796.578308 
	C713.412598,821.588867 686.949219,835.023865 655.746338,840.310608 
	C629.025513,844.837891 602.417664,844.161072 575.837097,839.315613 
	C569.551025,838.169678 565.834167,834.761292 565.722595,830.008057 
	C565.616882,825.510742 568.828796,821.680542 574.960388,820.434937 
	C580.130920,819.384583 585.512024,819.402893 590.787170,818.830444 
	C610.018188,816.743408 628.829041,812.935486 647.264221,806.814575 
	C669.564636,799.410278 689.449951,787.955383 707.488831,773.166138 
	C721.367004,761.788025 731.275208,747.182190 739.614685,731.491394 
	C746.020752,719.438293 752.060303,707.191101 758.360596,695.080994 
	C763.293579,685.599121 769.455261,676.897095 775.965393,668.006348 
z"/>
<path fill="#000000" opacity="1.000000" stroke="none" 
	d="
M596.000000,390.810516 
	C610.816467,390.831665 625.133606,390.779297 639.449158,390.904114 
	C647.021667,390.970154 654.357727,392.335175 661.054443,396.131775 
	C671.392456,401.992798 675.912964,414.786835 671.725037,425.912048 
	C669.212463,432.586639 663.565430,435.690094 657.516418,438.512360 
	C658.856079,440.237091 660.743530,440.589752 662.359192,441.281555 
	C671.958862,445.391876 677.070557,452.716064 676.982666,463.031555 
	C676.895691,473.237457 672.325134,481.314850 663.147461,486.273651 
	C656.907715,489.645050 650.167542,491.375397 643.029114,491.386780 
	C618.558044,491.425720 594.086975,491.477539 569.615906,491.496368 
	C568.023621,491.497589 566.296387,491.755371 564.458618,489.867432 
	C572.895874,486.030670 569.479553,478.681061 569.561401,472.622620 
	C569.871948,449.653656 569.669800,426.677979 569.708313,403.704895 
	C569.715576,399.373413 570.603699,394.744171 564.695068,393.612610 
	C565.330505,390.068695 567.753418,390.881134 569.530701,390.862061 
	C578.186279,390.769196 586.843445,390.814362 596.000000,390.810516 
M625.443481,470.644867 
	C630.446899,470.856964 635.417603,470.524963 640.340942,469.628540 
	C645.799316,468.634766 648.410156,465.823944 648.757812,460.701294 
	C649.242920,453.554321 645.515381,449.635895 636.845642,449.342560 
	C625.713379,448.965881 614.560425,449.242462 603.418091,449.102753 
	C600.047791,449.060455 599.113770,450.648529 599.221802,453.704224 
	C599.368530,457.857635 599.433838,462.028625 599.217896,466.175629 
	C599.028809,469.807343 600.706177,470.749817 604.000549,470.679077 
	C610.817139,470.532684 617.639282,470.640625 625.443481,470.644867 
M613.508118,412.239288 
	C610.021179,412.242401 606.534119,412.228760 603.047363,412.256470 
	C601.541626,412.268433 599.620300,412.237793 599.510498,414.150238 
	C599.282959,418.112152 599.350403,422.105103 599.561157,426.071228 
	C599.646851,427.682281 601.269043,427.987152 602.632568,427.979187 
	C614.250549,427.911194 625.873230,427.964020 637.483582,427.616821 
	C641.791870,427.488068 644.624451,424.915253 644.575562,420.241089 
	C644.530151,415.900330 642.071838,413.740295 637.862183,413.000397 
	C630.097839,411.635651 622.288574,412.514130 613.508118,412.239288 
z"/>
<path fill="#000000" opacity="1.000000" stroke="none" 
	d="
M206.887909,419.853302 
	C197.587631,428.184540 195.085022,438.408600 198.432922,449.614777 
	C202.090561,461.857758 212.135620,467.051727 223.793839,469.511780 
	C234.280533,471.724609 244.633438,470.075195 254.944290,467.892578 
	C260.917175,466.628235 258.466217,461.977173 258.694672,458.599762 
	C258.962769,454.635468 255.672760,455.456879 253.315063,455.408386 
	C249.319534,455.326172 245.320663,455.419861 241.324173,455.366669 
	C237.498779,455.315735 233.480515,454.620331 231.717422,459.401489 
	C228.373291,456.332336 227.794373,437.208710 230.594971,431.739441 
	C235.190155,436.286469 240.977814,434.708191 246.417358,434.765472 
	C259.406738,434.902191 272.398499,434.799072 285.389130,434.842316 
	C287.292633,434.848663 289.379578,434.329224 290.916962,435.852142 
	C286.158142,447.746338 289.119690,459.894501 288.599396,471.815979 
	C288.578064,472.305084 288.559906,472.970367 288.841736,473.270599 
	C294.044952,478.813538 288.973419,480.059021 285.260162,481.617889 
	C259.847137,492.286621 233.572342,495.565674 206.628204,489.250732 
	C183.615234,483.857117 169.245560,467.098755 168.044891,443.673035 
	C167.052185,424.304993 174.194946,406.710510 198.818130,395.838928 
	C217.844757,387.438354 237.725067,388.049255 257.572693,393.296143 
	C260.306000,394.018707 263.016449,394.846375 265.696869,395.746399 
	C270.009186,397.194336 273.987213,400.214722 279.107452,397.667725 
	C279.503357,398.130615 279.899231,398.593506 280.295105,399.056396 
	C276.229370,407.459106 272.163666,415.861786 267.780121,424.921356 
	C258.391815,412.494171 245.219101,413.502441 233.016083,412.390839 
	C223.717865,411.543823 214.786957,413.671936 206.887909,419.853302 
z"/>
<path fill="#000000" opacity="1.000000" stroke="none" 
	d="
M524.910522,414.346680 
	C509.429626,414.340668 494.431488,414.504303 479.441315,414.229706 
	C474.546143,414.140015 472.715942,415.824188 473.327301,420.564789 
	C473.517517,422.039795 473.413574,423.562469 473.345825,425.058868 
	C473.219818,427.841278 474.553558,428.917480 477.269012,428.898895 
	C487.431732,428.829315 497.595184,428.831024 507.758179,428.859467 
	C510.156738,428.866180 511.733704,427.702576 513.260010,425.976898 
	C514.854553,424.174103 516.715088,424.886841 516.759766,427.010101 
	C516.951355,436.121368 517.911621,445.264832 516.246033,454.340668 
	C516.204773,454.565613 515.729858,454.710999 515.006104,455.195496 
	C510.312195,449.174713 503.508942,451.378387 497.266571,451.191101 
	C490.608368,450.991333 483.938507,451.213379 477.274933,451.140991 
	C474.578247,451.111725 473.291809,452.108093 473.338715,454.935303 
	C473.587860,469.945984 471.239258,467.492950 485.405548,467.502502 
	C498.726440,467.511505 512.047852,467.284607 525.368347,467.108795 
	C530.234619,467.044525 535.961243,469.179199 538.789124,461.788452 
	C540.783813,473.146606 540.082703,483.989441 539.426392,495.171936 
	C533.797180,489.375366 527.182922,491.528473 521.158997,491.489136 
	C495.501923,491.321442 469.843018,491.431824 444.184906,491.385529 
	C442.472229,491.382416 440.513123,492.108398 439.130707,490.494507 
	C439.093048,490.200470 439.008514,489.926147 439.061157,489.896637 
	C445.381256,486.356415 443.854034,480.305115 443.859894,474.787018 
	C443.885223,450.961578 443.832092,427.135956 443.903595,403.310699 
	C443.916443,399.032593 444.204590,394.837708 438.773499,393.338074 
	C440.135681,389.930542 442.790833,390.875580 444.862610,390.870453 
	C472.020142,390.803528 499.177887,390.828979 526.335571,390.803040 
	C530.865417,390.798706 535.961609,392.115173 537.596191,386.010193 
	C540.593811,386.591064 540.198853,388.521667 540.209656,390.067566 
	C540.267700,398.397736 540.266785,406.728607 540.221680,415.058929 
	C540.213989,416.482605 540.603943,418.330353 538.767334,418.925446 
	C537.079773,419.472229 536.663086,417.849518 535.940552,416.746613 
	C533.219971,412.593781 528.949097,415.002899 524.910522,414.346680 
z"/>
<path fill="#000000" opacity="1.000000" stroke="none" 
	d="
M846.685486,436.212402 
	C862.919617,446.575928 861.398071,475.288177 840.863892,485.262970 
	C831.536987,489.793640 821.580505,491.679718 811.399414,492.113983 
	C793.332153,492.884644 775.421509,491.653290 758.272705,485.265961 
	C754.818726,483.979492 751.909424,485.063934 748.858948,486.107178 
	C747.898438,482.156494 759.337524,454.346191 763.172729,451.759399 
	C764.030762,463.471771 773.857178,464.077332 781.738464,466.522125 
	C794.158508,470.374817 806.913086,471.035004 819.695801,467.942963 
	C823.166626,467.103394 826.376465,465.728699 828.472229,462.655090 
	C831.445923,458.293762 830.054321,454.522919 824.962830,453.321503 
	C814.389221,450.826569 803.533203,450.465912 792.788330,449.298523 
	C784.640381,448.413269 776.629822,446.998657 769.015015,443.933441 
	C749.666443,436.144958 746.271667,414.404694 762.277161,400.802094 
	C771.200623,393.218353 782.025452,390.624542 793.318970,389.941406 
	C807.558167,389.080078 821.534790,391.167053 835.373291,394.516357 
	C841.763794,396.063019 848.123413,400.014038 854.435425,395.243561 
	C856.215210,396.870239 855.550049,398.149109 854.971985,399.322449 
	C851.586853,406.193695 848.192932,413.061249 844.721497,419.889099 
	C843.095947,423.086334 841.221069,423.597900 839.780334,419.790985 
	C838.745300,417.055786 836.406860,416.190765 834.089233,415.383514 
	C820.348022,410.597443 806.152344,409.339966 791.737793,410.461700 
	C788.282837,410.730560 784.827820,411.787170 782.028320,414.077942 
	C778.364807,417.075684 778.711243,420.644073 782.975403,422.728088 
	C787.547241,424.962463 792.600952,425.197388 797.564331,425.653168 
	C808.004761,426.611969 818.518311,426.914490 828.812866,429.160522 
	C835.028198,430.516632 841.062378,432.353027 846.685486,436.212402 
z"/>
<path fill="#000000" opacity="1.000000" stroke="none" 
	d="
M339.086121,276.122131 
	C317.006744,288.477356 296.877075,302.909729 278.919312,320.225494 
	C263.840973,334.764771 250.945969,351.064514 241.522949,369.860931 
	C239.503677,373.888824 237.163544,375.529816 232.678040,375.210602 
	C227.251968,374.824524 221.777435,375.119110 215.981430,375.119110 
	C216.008728,368.772400 218.092667,363.123962 219.962936,357.560760 
	C233.661926,316.812317 259.568817,286.346893 297.785950,266.603027 
	C312.387024,259.059784 328.137024,254.736465 344.293457,251.971695 
	C352.582336,250.553268 357.912537,252.771133 359.557343,257.929443 
	C361.132690,262.869904 358.114716,266.825714 350.109528,270.560364 
	C346.492401,272.247864 342.972107,274.142944 339.086121,276.122131 
z"/>
<path fill="#000000" opacity="1.000000" stroke="none" 
	d="
M478.817993,578.000000 
	C478.820068,570.006836 478.845123,562.513672 478.815643,555.020630 
	C478.798584,550.688416 479.939545,545.989868 474.893982,543.429077 
	C476.583954,541.148315 478.568970,541.754211 480.281952,541.749573 
	C498.431824,541.700989 516.582397,541.653625 534.731506,541.788086 
	C538.191589,541.813782 541.718140,542.334290 545.088989,543.145935 
	C555.121521,545.561584 561.474487,551.616760 562.949768,562.164490 
	C564.463074,572.984558 561.587402,581.991943 551.997375,588.061646 
	C549.202637,589.830505 546.136047,591.169922 542.554382,593.040222 
	C549.005676,602.802368 555.548401,612.375122 563.654724,621.816162 
	C552.742004,621.816162 542.375793,621.816162 530.801636,621.816162 
	C535.288086,618.113647 533.664673,615.487793 531.319763,612.510986 
	C526.995667,607.021729 523.028015,601.252441 518.887024,595.618042 
	C517.008606,593.062256 506.596313,591.682373 504.208893,593.659424 
	C503.044067,594.624023 503.105103,596.022522 503.102325,597.346497 
	C503.090118,603.174377 503.306335,609.011475 503.034485,614.826294 
	C502.897583,617.754944 504.857178,619.176636 507.218262,621.747070 
	C496.022888,621.747070 485.805878,621.747070 474.064850,621.747070 
	C479.991730,618.202759 478.786163,613.413574 478.803070,608.972229 
	C478.841705,598.815002 478.817047,588.657410 478.817993,578.000000 
M504.289612,560.625977 
	C502.051666,563.605896 503.443298,567.038147 503.109009,570.253235 
	C502.763855,573.573181 504.195984,575.123901 507.686859,575.054138 
	C515.163086,574.904663 522.646118,575.080261 530.121521,574.910461 
	C535.403931,574.790527 538.557617,571.984253 538.670471,567.771057 
	C538.783447,563.556641 535.684143,560.364807 530.503967,560.234131 
	C522.041687,560.020569 513.568542,560.239685 504.289612,560.625977 
z"/>
<path fill="#000000" opacity="1.000000" stroke="none" 
	d="
M655.277954,545.488281 
	C673.431763,553.754639 678.551697,573.186768 675.692566,589.480652 
	C672.363464,608.452881 658.667908,621.177917 639.916748,622.070679 
	C622.301819,622.909363 604.617920,622.306885 586.964355,622.299255 
	C586.228271,622.298950 585.492310,621.899902 583.122559,621.213074 
	C589.786804,618.805237 588.611206,614.203308 588.617920,610.050903 
	C588.648132,591.396790 588.618469,572.742737 588.637878,554.088623 
	C588.642151,549.959473 589.310791,545.631897 584.472412,543.504150 
	C585.770996,540.945923 587.846375,541.747253 589.502869,541.741150 
	C605.824951,541.681519 622.147461,541.704102 638.469788,541.726746 
	C644.210938,541.734741 649.674438,543.069885 655.277954,545.488281 
M647.441101,597.940979 
	C650.186768,595.071472 651.719482,591.553589 652.308838,587.725952 
	C654.317749,574.678833 650.104248,560.183899 631.078186,560.966370 
	C626.259399,561.164612 621.424927,561.108948 616.600952,561.011169 
	C613.391602,560.946167 612.207947,562.315247 612.240417,565.505554 
	C612.355469,576.821655 612.376648,588.140625 612.239563,599.456116 
	C612.198608,602.830994 613.629150,603.784363 616.733032,603.701172 
	C622.221252,603.553955 627.726379,603.861206 633.205383,603.591553 
	C638.247437,603.343506 643.061218,602.048828 647.441101,597.940979 
z"/>
<path fill="#000000" opacity="1.000000" stroke="none" 
	d="
M347.662231,390.782166 
	C349.532623,390.957092 351.216187,390.489105 352.145874,392.944672 
	C344.859894,395.989258 347.281433,402.535217 347.232941,408.142090 
	C347.078796,425.962097 347.303650,443.785858 347.089417,461.604614 
	C347.035492,466.091095 348.288300,467.727661 352.958496,467.665100 
	C369.941193,467.437531 386.928833,467.598145 403.914551,467.568909 
	C408.563202,467.560913 413.766113,468.809814 416.340363,462.098206 
	C418.643646,473.752777 418.217682,484.758972 416.871704,496.271393 
	C412.264984,489.015137 405.454376,491.532745 399.532471,491.495880 
	C372.718140,491.328857 345.902069,491.444946 319.086761,491.399536 
	C317.015259,491.396057 314.774658,492.028015 312.905670,490.582367 
	C312.860321,490.152924 312.719849,489.581573 312.807434,489.544159 
	C318.573853,487.081573 317.600403,482.006317 317.599060,477.301086 
	C317.591797,451.984680 317.596222,426.668304 317.578247,401.351898 
	C317.576508,398.886871 317.964783,396.241058 314.954865,394.943268 
	C313.775299,394.434662 312.201019,393.936188 312.799103,392.161469 
	C313.338135,390.561920 314.932037,390.792999 316.225800,390.790009 
	C326.552185,390.766144 336.878632,390.779663 347.662231,390.782166 
z"/>
<path fill="#000000" opacity="1.000000" stroke="none" 
	d="
M750.620483,592.246216 
	C741.047668,589.564392 731.486145,589.661865 722.117432,588.331360 
	C715.510315,587.393005 709.114502,585.843323 702.890503,583.296753 
	C688.677246,577.481201 689.292542,561.644897 696.149109,553.304688 
	C703.507874,544.353638 713.706055,541.609985 724.571533,540.834229 
	C736.822388,539.959595 748.792908,542.061218 760.580872,545.288757 
	C764.907104,546.473267 769.215820,548.180298 774.171570,545.481750 
	C771.857666,553.489075 768.183960,560.466125 763.591797,568.344604 
	C760.623596,561.622681 755.400574,560.722473 750.413940,559.556702 
	C742.764648,557.768433 735.006836,556.819763 727.131104,557.308472 
	C725.313538,557.421326 723.481995,557.624329 721.704895,558.007996 
	C718.255005,558.752747 713.865967,559.564758 713.892700,563.661133 
	C713.921265,568.044800 718.555725,568.236267 721.938965,568.663757 
	C730.846008,569.789246 739.788269,570.632263 748.705933,571.677612 
	C753.018738,572.183105 757.261841,573.143005 761.270081,574.836975 
	C769.611938,578.362305 775.781372,583.768494 776.236206,593.559631 
	C776.732422,604.240723 772.393188,612.457214 762.725769,617.187805 
	C750.217163,623.308838 736.773499,623.862244 723.172363,622.783386 
	C713.849365,622.043945 704.631653,620.623230 695.911682,617.143616 
	C693.223511,616.070984 691.165955,618.216187 687.420044,617.465332 
	C691.318604,608.200134 695.052490,599.326294 699.271301,589.299927 
	C704.417419,602.500854 715.440369,602.451111 724.949890,604.292236 
	C731.558716,605.571899 738.553589,605.280212 745.280334,603.569031 
	C748.271301,602.808167 750.957214,601.518372 752.634949,598.804138 
	C754.264221,596.168335 754.493958,593.755188 750.620483,592.246216 
z"/>
<path fill="#000000" opacity="1.000000" stroke="none" 
	d="
M737.843750,302.170654 
	C725.820923,291.957306 712.916504,283.828308 698.666443,277.897705 
	C694.920959,276.338867 692.313660,273.878601 692.881042,269.639221 
	C693.445618,265.421295 696.522400,263.417175 700.601318,263.171173 
	C723.112671,261.813416 744.728943,264.694855 764.576843,276.412384 
	C785.871765,288.984222 797.762268,307.468811 800.306946,332.049683 
	C801.300476,341.645813 802.411194,351.229797 802.084961,360.900024 
	C802.012268,363.052948 801.671204,365.197693 801.434509,367.344086 
	C801.031921,370.994537 798.879639,373.106934 795.369141,373.615662 
	C791.695801,374.147949 789.306152,372.045929 787.947449,368.926819 
	C784.616943,361.281281 780.666565,353.974060 776.330383,346.868164 
	C766.016113,329.965637 753.335266,315.090302 737.843750,302.170654 
z"/>
<path fill="#000000" opacity="1.000000" stroke="none" 
	d="
M325.211182,565.652100 
	C315.435974,562.054504 305.747894,561.033691 295.884003,562.912415 
	C283.477478,565.275452 277.124573,572.123047 277.213745,582.618408 
	C277.295837,592.285339 284.569305,599.371887 296.287750,601.599243 
	C306.708954,603.580139 316.349792,600.942322 325.938690,597.337769 
	C328.898285,596.225220 329.304047,593.697510 330.126740,589.774353 
	C336.930328,598.254028 341.511536,606.687866 347.035156,614.909241 
	C334.037811,617.394104 322.527405,622.295105 310.045776,622.862488 
	C292.217896,623.672791 275.345795,621.440247 262.248962,607.691956 
	C246.680527,591.349243 249.141541,565.306885 267.349762,551.922119 
	C283.561523,540.005005 301.807373,539.038452 320.777832,542.097839 
	C325.872986,542.919556 330.975616,543.866272 335.742950,545.852783 
	C338.358551,546.942749 340.915741,546.030090 344.326385,546.239136 
	C340.400269,555.501953 335.448914,563.479004 330.638611,572.216431 
	C328.225128,569.676147 328.544983,566.368652 325.211182,565.652100 
z"/>
<path fill="#000000" opacity="1.000000" stroke="none" 
	d="
M428.742371,622.201660 
	C427.128113,618.653625 428.123260,614.990845 426.690338,611.308838 
	C424.857513,606.599060 422.490753,604.962708 417.537079,605.206665 
	C409.396149,605.607666 401.219055,605.415100 393.061310,605.258850 
	C390.088989,605.201965 388.272552,606.229797 387.559357,609.090515 
	C386.543243,613.166504 382.767731,616.933411 386.842072,621.888916 
	C377.363831,621.888916 368.592010,621.888916 360.130890,621.888916 
	C367.953125,605.804626 373.208801,589.048401 379.680206,572.790894 
	C382.633331,565.371948 385.284546,557.832947 388.233246,550.412170 
	C389.283112,547.770020 389.890137,545.390381 386.140503,542.426270 
	C400.605774,542.426270 413.620209,542.426270 427.342529,542.426270 
	C424.835358,546.115845 426.008392,549.169312 427.363556,552.455261 
	C435.421692,571.994263 443.345795,591.588989 451.217438,611.204102 
	C452.638672,614.745667 454.230408,618.132751 457.589417,621.731262 
	C447.521301,622.969482 438.324036,622.227173 428.742371,622.201660 
M394.993134,591.661804 
	C402.878906,591.661804 410.764679,591.661804 419.527954,591.661804 
	C414.949280,580.350647 410.674072,569.789307 405.933075,558.077209 
	C403.234131,565.199890 400.886688,570.874268 398.943787,576.683899 
	C397.332184,581.502869 394.654663,586.010437 394.993134,591.661804 
z"/>
<path fill="#000000" opacity="1.000000" stroke="none" 
	d="
M283.061462,772.192139 
	C287.977844,768.396790 291.083191,768.326233 295.320648,771.849121 
	C296.843811,773.115356 298.268036,774.581421 299.442749,776.173706 
	C315.203491,797.536377 336.737915,810.350220 361.589844,818.268738 
	C365.254364,819.436401 368.817932,820.788208 371.968170,823.054871 
	C375.216187,825.391907 377.090088,828.433533 375.954742,832.489502 
	C374.891144,836.289429 371.953644,838.068787 368.146301,838.437744 
	C360.059845,839.221375 352.176941,838.087280 344.581055,835.361084 
	C331.439514,830.644592 317.723846,826.778259 307.117828,817.151123 
	C296.527954,807.538757 286.083496,797.578186 282.020691,783.043396 
	C281.004730,779.408752 280.489746,775.855896 283.061462,772.192139 
z"/>
<path fill="#000000" opacity="1.000000" stroke="none" 
	d="
M710.199097,433.306763 
	C705.525574,435.785553 701.260315,438.317688 696.101624,439.165955 
	C694.616638,435.474091 694.945190,432.850281 698.620544,431.134247 
	C703.511536,428.850525 707.937073,425.922211 710.663757,421.051270 
	C712.034119,418.603271 712.151550,416.946381 708.536987,416.192078 
	C698.012634,413.995667 693.783875,408.671906 694.729248,399.517700 
	C695.533508,391.730591 701.638245,386.731903 710.437622,386.655426 
	C719.982971,386.572510 726.072632,391.868927 727.226440,401.507751 
	C728.944153,415.857666 721.821350,425.615417 710.199097,433.306763 
z"/>
</svg>